<?xml version="1.0" encoding="UTF-8" standalone="no"?>
<!DOCTYPE svg PUBLIC "-//W3C//DTD SVG 1.1//EN"
 "http://www.w3.org/Graphics/SVG/1.1/DTD/svg11.dtd">
<!-- Generated by graphviz version 2.47.0 (20210316.0004)
 -->
<!-- Title: dependencies Pages: 1 -->
<svg width="1006pt" height="284pt"
 viewBox="0.00 0.00 1006.00 284.00" xmlns="http://www.w3.org/2000/svg" xmlns:xlink="http://www.w3.org/1999/xlink">
<g id="graph0" class="graph" transform="scale(1 1) rotate(0) translate(4 280)">
<title>dependencies</title>
<polygon fill="white" stroke="transparent" points="-4,4 -4,-280 1002,-280 1002,4 -4,4"/>
<text text-anchor="start" x="478.01" y="-42.4" font-family="Times-12" font-weight="bold" font-size="14.00">Legend</text>
<polygon fill="#ffffb3" stroke="transparent" points="265,-10 265,-30 285,-30 285,-10 265,-10"/>
<text text-anchor="start" x="288.63" y="-15.4" font-family="Times-12" font-size="14.00"> &#160;Declarations</text>
<polygon fill="#8dd3c7" stroke="transparent" points="378,-10 378,-30 398,-30 398,-10 378,-10"/>
<text text-anchor="start" x="401.73" y="-15.4" font-family="Times-12" font-size="14.00"> &#160;Module</text>
<polygon fill="#80b1d3" stroke="transparent" points="464,-10 464,-30 484,-30 484,-10 464,-10"/>
<text text-anchor="start" x="487.78" y="-15.4" font-family="Times-12" font-size="14.00"> &#160;Bootstrap</text>
<polygon fill="#fdb462" stroke="transparent" points="561,-10 561,-30 581,-30 581,-10 561,-10"/>
<text text-anchor="start" x="584.67" y="-15.4" font-family="Times-12" font-size="14.00"> &#160;Providers</text>
<polygon fill="#fb8072" stroke="transparent" points="657,-10 657,-30 677,-30 677,-10 657,-10"/>
<text text-anchor="start" x="680.73" y="-15.4" font-family="Times-12" font-size="14.00"> &#160;Exports</text>
<g id="clust1" class="cluster">
<title>cluster_ReservationModule</title>
<polygon fill="none" stroke="black" stroke-dasharray="1,5" points="8,-70 8,-268 990,-268 990,-70 8,-70"/>
</g>
<g id="clust6" class="cluster">
<title>cluster_ReservationModule_providers</title>
<polygon fill="none" stroke="black" points="16,-78 16,-130 982,-130 982,-78 16,-78"/>
</g>
<g id="clust4" class="cluster">
<title>cluster_ReservationModule_exports</title>
<polygon fill="none" stroke="black" points="352,-208 352,-260 701,-260 701,-208 352,-208"/>
</g>
<!-- ReservationDocumentService  -->
<g id="node1" class="node">
<title>ReservationDocumentService </title>
<polygon fill="#fb8072" stroke="black" points="693.16,-252 506.84,-252 506.84,-216 693.16,-216 693.16,-252"/>
<text text-anchor="middle" x="600" y="-229.8" font-family="Times,serif" font-size="14.00">ReservationDocumentService </text>
</g>
<!-- ReservationService  -->
<g id="node2" class="node">
<title>ReservationService </title>
<polygon fill="#fb8072" stroke="black" points="488.34,-252 359.66,-252 359.66,-216 488.34,-216 488.34,-252"/>
<text text-anchor="middle" x="424" y="-229.8" font-family="Times,serif" font-size="14.00">ReservationService </text>
</g>
<!-- ReservationModule -->
<g id="node3" class="node">
<title>ReservationModule</title>
<polygon fill="#8dd3c7" stroke="black" points="575.42,-187 572.42,-191 551.42,-191 548.42,-187 448.58,-187 448.58,-151 575.42,-151 575.42,-187"/>
<text text-anchor="middle" x="512" y="-164.8" font-family="Times,serif" font-size="14.00">ReservationModule</text>
</g>
<!-- ReservationModule&#45;&gt;ReservationDocumentService  -->
<g id="edge1" class="edge">
<title>ReservationModule&#45;&gt;ReservationDocumentService </title>
<path fill="none" stroke="black" stroke-dasharray="5,2" d="M540.94,-187.11C540.94,-187.11 540.94,-205.99 540.94,-205.99"/>
<polygon fill="black" stroke="black" points="537.44,-205.99 540.94,-215.99 544.44,-205.99 537.44,-205.99"/>
</g>
<!-- ReservationModule&#45;&gt;ReservationService  -->
<g id="edge2" class="edge">
<title>ReservationModule&#45;&gt;ReservationService </title>
<path fill="none" stroke="black" stroke-dasharray="5,2" d="M468.48,-187.11C468.48,-187.11 468.48,-205.99 468.48,-205.99"/>
<polygon fill="black" stroke="black" points="464.98,-205.99 468.48,-215.99 471.98,-205.99 464.98,-205.99"/>
</g>
<!-- CloudinaryService -->
<g id="node4" class="node">
<title>CloudinaryService</title>
<ellipse fill="#fdb462" stroke="black" cx="891" cy="-104" rx="83.39" ry="18"/>
<text text-anchor="middle" x="891" y="-99.8" font-family="Times,serif" font-size="14.00">CloudinaryService</text>
</g>
<!-- CloudinaryService&#45;&gt;ReservationModule -->
<g id="edge3" class="edge">
<title>CloudinaryService&#45;&gt;ReservationModule</title>
<path fill="none" stroke="black" d="M891,-122.28C891,-143.32 891,-175 891,-175 891,-175 585.44,-175 585.44,-175"/>
<polygon fill="black" stroke="black" points="585.44,-171.5 575.44,-175 585.44,-178.5 585.44,-171.5"/>
</g>
<!-- PrismaService -->
<g id="node5" class="node">
<title>PrismaService</title>
<ellipse fill="#fdb462" stroke="black" cx="723" cy="-104" rx="66.63" ry="18"/>
<text text-anchor="middle" x="723" y="-99.8" font-family="Times,serif" font-size="14.00">PrismaService</text>
</g>
<!-- PrismaService&#45;&gt;ReservationModule -->
<g id="edge4" class="edge">
<title>PrismaService&#45;&gt;ReservationModule</title>
<path fill="none" stroke="black" d="M674.76,-116.51C674.76,-133.83 674.76,-163 674.76,-163 674.76,-163 585.39,-163 585.39,-163"/>
<polygon fill="black" stroke="black" points="585.39,-159.5 575.39,-163 585.39,-166.5 585.39,-159.5"/>
</g>
<!-- ReservationDocumentService -->
<g id="node6" class="node">
<title>ReservationDocumentService</title>
<ellipse fill="#fdb462" stroke="black" cx="512" cy="-104" rx="126.18" ry="18"/>
<text text-anchor="middle" x="512" y="-99.8" font-family="Times,serif" font-size="14.00">ReservationDocumentService</text>
</g>
<!-- ReservationDocumentService&#45;&gt;ReservationModule -->
<g id="edge5" class="edge">
<title>ReservationDocumentService&#45;&gt;ReservationModule</title>
<path fill="none" stroke="black" d="M512,-122.11C512,-122.11 512,-140.99 512,-140.99"/>
<polygon fill="black" stroke="black" points="508.5,-140.99 512,-150.99 515.5,-140.99 508.5,-140.99"/>
</g>
<!-- ReservationService -->
<g id="node7" class="node">
<title>ReservationService</title>
<ellipse fill="#fdb462" stroke="black" cx="282" cy="-104" rx="86.23" ry="18"/>
<text text-anchor="middle" x="282" y="-99.8" font-family="Times,serif" font-size="14.00">ReservationService</text>
</g>
<!-- ReservationService&#45;&gt;ReservationModule -->
<g id="edge6" class="edge">
<title>ReservationService&#45;&gt;ReservationModule</title>
<path fill="none" stroke="black" d="M363.97,-109.87C363.97,-124.8 363.97,-163 363.97,-163 363.97,-163 438.36,-163 438.36,-163"/>
<polygon fill="black" stroke="black" points="438.36,-166.5 448.36,-163 438.36,-159.5 438.36,-166.5"/>
</g>
<!-- ResponseService -->
<g id="node8" class="node">
<title>ResponseService</title>
<ellipse fill="#fdb462" stroke="black" cx="101" cy="-104" rx="77" ry="18"/>
<text text-anchor="middle" x="101" y="-99.8" font-family="Times,serif" font-size="14.00">ResponseService</text>
</g>
<!-- ResponseService&#45;&gt;ReservationModule -->
<g id="edge7" class="edge">
<title>ResponseService&#45;&gt;ReservationModule</title>
<path fill="none" stroke="black" d="M101,-122.28C101,-143.32 101,-175 101,-175 101,-175 438.68,-175 438.68,-175"/>
<polygon fill="black" stroke="black" points="438.68,-178.5 448.68,-175 438.68,-171.5 438.68,-178.5"/>
</g>
</g>
</svg>
