<?xml version="1.0" encoding="UTF-8" standalone="no"?>
<!DOCTYPE svg PUBLIC "-//W3C//DTD SVG 1.1//EN"
 "http://www.w3.org/Graphics/SVG/1.1/DTD/svg11.dtd">
<!-- Generated by graphviz version 2.47.0 (20210316.0004)
 -->
<!-- Title: dependencies Pages: 1 -->
<svg width="680pt" height="284pt"
 viewBox="0.00 0.00 680.00 284.00" xmlns="http://www.w3.org/2000/svg" xmlns:xlink="http://www.w3.org/1999/xlink">
<g id="graph0" class="graph" transform="scale(1 1) rotate(0) translate(4 280)">
<title>dependencies</title>
<polygon fill="white" stroke="transparent" points="-4,4 -4,-280 676,-280 676,4 -4,4"/>
<text text-anchor="start" x="315.01" y="-42.4" font-family="Times-12" font-weight="bold" font-size="14.00">Legend</text>
<polygon fill="#ffffb3" stroke="transparent" points="102,-10 102,-30 122,-30 122,-10 102,-10"/>
<text text-anchor="start" x="125.63" y="-15.4" font-family="Times-12" font-size="14.00"> &#160;Declarations</text>
<polygon fill="#8dd3c7" stroke="transparent" points="215,-10 215,-30 235,-30 235,-10 215,-10"/>
<text text-anchor="start" x="238.73" y="-15.4" font-family="Times-12" font-size="14.00"> &#160;Module</text>
<polygon fill="#80b1d3" stroke="transparent" points="301,-10 301,-30 321,-30 321,-10 301,-10"/>
<text text-anchor="start" x="324.78" y="-15.4" font-family="Times-12" font-size="14.00"> &#160;Bootstrap</text>
<polygon fill="#fdb462" stroke="transparent" points="398,-10 398,-30 418,-30 418,-10 398,-10"/>
<text text-anchor="start" x="421.67" y="-15.4" font-family="Times-12" font-size="14.00"> &#160;Providers</text>
<polygon fill="#fb8072" stroke="transparent" points="494,-10 494,-30 514,-30 514,-10 494,-10"/>
<text text-anchor="start" x="517.73" y="-15.4" font-family="Times-12" font-size="14.00"> &#160;Exports</text>
<g id="clust1" class="cluster">
<title>cluster_SousServiceModule</title>
<polygon fill="none" stroke="black" stroke-dasharray="1,5" points="8,-70 8,-268 664,-268 664,-70 8,-70"/>
</g>
<g id="clust3" class="cluster">
<title>cluster_SousServiceModule_imports</title>
<polygon fill="none" stroke="black" points="540,-78 540,-130 656,-130 656,-78 540,-78"/>
</g>
<g id="clust6" class="cluster">
<title>cluster_SousServiceModule_providers</title>
<polygon fill="none" stroke="black" points="16,-78 16,-130 532,-130 532,-78 16,-78"/>
</g>
<g id="clust4" class="cluster">
<title>cluster_SousServiceModule_exports</title>
<polygon fill="none" stroke="black" points="303,-208 303,-260 449,-260 449,-208 303,-208"/>
</g>
<!-- UploadModule -->
<g id="node1" class="node">
<title>UploadModule</title>
<polygon fill="#8dd3c7" stroke="black" points="648.26,-122 645.26,-126 624.26,-126 621.26,-122 547.74,-122 547.74,-86 648.26,-86 648.26,-122"/>
<text text-anchor="middle" x="598" y="-99.8" font-family="Times,serif" font-size="14.00">UploadModule</text>
</g>
<!-- SousServiceModule -->
<g id="node2" class="node">
<title>SousServiceModule</title>
<polygon fill="#8dd3c7" stroke="black" points="440.25,-187 437.25,-191 416.25,-191 413.25,-187 311.75,-187 311.75,-151 440.25,-151 440.25,-187"/>
<text text-anchor="middle" x="376" y="-164.8" font-family="Times,serif" font-size="14.00">SousServiceModule</text>
</g>
<!-- UploadModule&#45;&gt;SousServiceModule -->
<g id="edge1" class="edge">
<title>UploadModule&#45;&gt;SousServiceModule</title>
<path fill="none" stroke="black" d="M598,-122.11C598,-141.34 598,-169 598,-169 598,-169 450.51,-169 450.51,-169"/>
<polygon fill="black" stroke="black" points="450.51,-165.5 440.51,-169 450.51,-172.5 450.51,-165.5"/>
</g>
<!-- SousServiceService  -->
<g id="node3" class="node">
<title>SousServiceService </title>
<polygon fill="#fb8072" stroke="black" points="441.18,-252 310.82,-252 310.82,-216 441.18,-216 441.18,-252"/>
<text text-anchor="middle" x="376" y="-229.8" font-family="Times,serif" font-size="14.00">SousServiceService </text>
</g>
<!-- SousServiceModule&#45;&gt;SousServiceService  -->
<g id="edge2" class="edge">
<title>SousServiceModule&#45;&gt;SousServiceService </title>
<path fill="none" stroke="black" stroke-dasharray="5,2" d="M376,-187.11C376,-187.11 376,-205.99 376,-205.99"/>
<polygon fill="black" stroke="black" points="372.5,-205.99 376,-215.99 379.5,-205.99 372.5,-205.99"/>
</g>
<!-- PrismaService -->
<g id="node4" class="node">
<title>PrismaService</title>
<ellipse fill="#fdb462" stroke="black" cx="457" cy="-104" rx="66.63" ry="18"/>
<text text-anchor="middle" x="457" y="-99.8" font-family="Times,serif" font-size="14.00">PrismaService</text>
</g>
<!-- PrismaService&#45;&gt;SousServiceModule -->
<g id="edge3" class="edge">
<title>PrismaService&#45;&gt;SousServiceModule</title>
<path fill="none" stroke="black" d="M415.28,-118.1C415.28,-118.1 415.28,-140.72 415.28,-140.72"/>
<polygon fill="black" stroke="black" points="411.78,-140.72 415.28,-150.72 418.78,-140.72 411.78,-140.72"/>
</g>
<!-- ResponseService -->
<g id="node5" class="node">
<title>ResponseService</title>
<ellipse fill="#fdb462" stroke="black" cx="295" cy="-104" rx="77" ry="18"/>
<text text-anchor="middle" x="295" y="-99.8" font-family="Times,serif" font-size="14.00">ResponseService</text>
</g>
<!-- ResponseService&#45;&gt;SousServiceModule -->
<g id="edge4" class="edge">
<title>ResponseService&#45;&gt;SousServiceModule</title>
<path fill="none" stroke="black" d="M341.81,-118.43C341.81,-118.43 341.81,-140.89 341.81,-140.89"/>
<polygon fill="black" stroke="black" points="338.31,-140.89 341.81,-150.89 345.31,-140.89 338.31,-140.89"/>
</g>
<!-- SousServiceService -->
<g id="node6" class="node">
<title>SousServiceService</title>
<ellipse fill="#fdb462" stroke="black" cx="112" cy="-104" rx="87.96" ry="18"/>
<text text-anchor="middle" x="112" y="-99.8" font-family="Times,serif" font-size="14.00">SousServiceService</text>
</g>
<!-- SousServiceService&#45;&gt;SousServiceModule -->
<g id="edge5" class="edge">
<title>SousServiceService&#45;&gt;SousServiceModule</title>
<path fill="none" stroke="black" d="M112,-122.11C112,-141.34 112,-169 112,-169 112,-169 301.42,-169 301.42,-169"/>
<polygon fill="black" stroke="black" points="301.42,-172.5 311.42,-169 301.42,-165.5 301.42,-172.5"/>
</g>
</g>
</svg>
