<?xml version="1.0" encoding="UTF-8" standalone="no"?>
<!DOCTYPE svg PUBLIC "-//W3C//DTD SVG 1.1//EN"
 "http://www.w3.org/Graphics/SVG/1.1/DTD/svg11.dtd">
<!-- Generated by graphviz version 2.47.0 (20210316.0004)
 -->
<!-- Title: dependencies Pages: 1 -->
<svg width="680pt" height="284pt"
 viewBox="0.00 0.00 680.00 284.00" xmlns="http://www.w3.org/2000/svg" xmlns:xlink="http://www.w3.org/1999/xlink">
<g id="graph0" class="graph" transform="scale(1 1) rotate(0) translate(4 280)">
<title>dependencies</title>
<polygon fill="white" stroke="transparent" points="-4,4 -4,-280 676,-280 676,4 -4,4"/>
<text text-anchor="start" x="315.01" y="-42.4" font-family="Times-12" font-weight="bold" font-size="14.00">Legend</text>
<polygon fill="#ffffb3" stroke="transparent" points="102,-10 102,-30 122,-30 122,-10 102,-10"/>
<text text-anchor="start" x="125.63" y="-15.4" font-family="Times-12" font-size="14.00"> &#160;Declarations</text>
<polygon fill="#8dd3c7" stroke="transparent" points="215,-10 215,-30 235,-30 235,-10 215,-10"/>
<text text-anchor="start" x="238.73" y="-15.4" font-family="Times-12" font-size="14.00"> &#160;Module</text>
<polygon fill="#80b1d3" stroke="transparent" points="301,-10 301,-30 321,-30 321,-10 301,-10"/>
<text text-anchor="start" x="324.78" y="-15.4" font-family="Times-12" font-size="14.00"> &#160;Bootstrap</text>
<polygon fill="#fdb462" stroke="transparent" points="398,-10 398,-30 418,-30 418,-10 398,-10"/>
<text text-anchor="start" x="421.67" y="-15.4" font-family="Times-12" font-size="14.00"> &#160;Providers</text>
<polygon fill="#fb8072" stroke="transparent" points="494,-10 494,-30 514,-30 514,-10 494,-10"/>
<text text-anchor="start" x="517.73" y="-15.4" font-family="Times-12" font-size="14.00"> &#160;Exports</text>
<g id="clust1" class="cluster">
<title>cluster_SousServiceModule</title>
<polygon fill="none" stroke="black" stroke-dasharray="1,5" points="8,-70 8,-268 664,-268 664,-70 8,-70"/>
</g>
<g id="clust6" class="cluster">
<title>cluster_SousServiceModule_providers</title>
<polygon fill="none" stroke="black" points="140,-78 140,-130 656,-130 656,-78 140,-78"/>
</g>
<g id="clust4" class="cluster">
<title>cluster_SousServiceModule_exports</title>
<polygon fill="none" stroke="black" points="254,-208 254,-260 400,-260 400,-208 254,-208"/>
</g>
<g id="clust3" class="cluster">
<title>cluster_SousServiceModule_imports</title>
<polygon fill="none" stroke="black" points="16,-78 16,-130 132,-130 132,-78 16,-78"/>
</g>
<!-- UploadModule -->
<g id="node1" class="node">
<title>UploadModule</title>
<polygon fill="#8dd3c7" stroke="black" points="124.26,-122 121.26,-126 100.26,-126 97.26,-122 23.74,-122 23.74,-86 124.26,-86 124.26,-122"/>
<text text-anchor="middle" x="74" y="-99.8" font-family="Times,serif" font-size="14.00">UploadModule</text>
</g>
<!-- SousServiceModule -->
<g id="node2" class="node">
<title>SousServiceModule</title>
<polygon fill="#8dd3c7" stroke="black" points="391.25,-187 388.25,-191 367.25,-191 364.25,-187 262.75,-187 262.75,-151 391.25,-151 391.25,-187"/>
<text text-anchor="middle" x="327" y="-164.8" font-family="Times,serif" font-size="14.00">SousServiceModule</text>
</g>
<!-- UploadModule&#45;&gt;SousServiceModule -->
<g id="edge1" class="edge">
<title>UploadModule&#45;&gt;SousServiceModule</title>
<path fill="none" stroke="black" d="M74,-122.11C74,-141.34 74,-169 74,-169 74,-169 252.5,-169 252.5,-169"/>
<polygon fill="black" stroke="black" points="252.5,-172.5 262.5,-169 252.5,-165.5 252.5,-172.5"/>
</g>
<!-- SousServiceService  -->
<g id="node3" class="node">
<title>SousServiceService </title>
<polygon fill="#fb8072" stroke="black" points="392.18,-252 261.82,-252 261.82,-216 392.18,-216 392.18,-252"/>
<text text-anchor="middle" x="327" y="-229.8" font-family="Times,serif" font-size="14.00">SousServiceService </text>
</g>
<!-- SousServiceModule&#45;&gt;SousServiceService  -->
<g id="edge2" class="edge">
<title>SousServiceModule&#45;&gt;SousServiceService </title>
<path fill="none" stroke="black" stroke-dasharray="5,2" d="M327,-187.11C327,-187.11 327,-205.99 327,-205.99"/>
<polygon fill="black" stroke="black" points="323.5,-205.99 327,-215.99 330.5,-205.99 323.5,-205.99"/>
</g>
<!-- PrismaService -->
<g id="node4" class="node">
<title>PrismaService</title>
<ellipse fill="#fdb462" stroke="black" cx="581" cy="-104" rx="66.63" ry="18"/>
<text text-anchor="middle" x="581" y="-99.8" font-family="Times,serif" font-size="14.00">PrismaService</text>
</g>
<!-- PrismaService&#45;&gt;SousServiceModule -->
<g id="edge3" class="edge">
<title>PrismaService&#45;&gt;SousServiceModule</title>
<path fill="none" stroke="black" d="M581,-122.11C581,-141.34 581,-169 581,-169 581,-169 401.42,-169 401.42,-169"/>
<polygon fill="black" stroke="black" points="401.42,-165.5 391.42,-169 401.42,-172.5 401.42,-165.5"/>
</g>
<!-- ResponseService -->
<g id="node5" class="node">
<title>ResponseService</title>
<ellipse fill="#fdb462" stroke="black" cx="419" cy="-104" rx="77" ry="18"/>
<text text-anchor="middle" x="419" y="-99.8" font-family="Times,serif" font-size="14.00">ResponseService</text>
</g>
<!-- ResponseService&#45;&gt;SousServiceModule -->
<g id="edge4" class="edge">
<title>ResponseService&#45;&gt;SousServiceModule</title>
<path fill="none" stroke="black" d="M366.69,-117.47C366.69,-117.47 366.69,-140.86 366.69,-140.86"/>
<polygon fill="black" stroke="black" points="363.19,-140.86 366.69,-150.86 370.19,-140.86 363.19,-140.86"/>
</g>
<!-- SousServiceService -->
<g id="node6" class="node">
<title>SousServiceService</title>
<ellipse fill="#fdb462" stroke="black" cx="236" cy="-104" rx="87.96" ry="18"/>
<text text-anchor="middle" x="236" y="-99.8" font-family="Times,serif" font-size="14.00">SousServiceService</text>
</g>
<!-- SousServiceService&#45;&gt;SousServiceModule -->
<g id="edge5" class="edge">
<title>SousServiceService&#45;&gt;SousServiceModule</title>
<path fill="none" stroke="black" d="M293.18,-117.78C293.18,-117.78 293.18,-140.55 293.18,-140.55"/>
<polygon fill="black" stroke="black" points="289.68,-140.55 293.18,-150.55 296.68,-140.55 289.68,-140.55"/>
</g>
</g>
</svg>
