<?xml version="1.0" encoding="UTF-8" standalone="no"?>
<!DOCTYPE svg PUBLIC "-//W3C//DTD SVG 1.1//EN"
 "http://www.w3.org/Graphics/SVG/1.1/DTD/svg11.dtd">
<!-- Generated by graphviz version 2.47.0 (20210316.0004)
 -->
<!-- Title: dependencies Pages: 1 -->
<svg width="1130pt" height="284pt"
 viewBox="0.00 0.00 1130.00 284.00" xmlns="http://www.w3.org/2000/svg" xmlns:xlink="http://www.w3.org/1999/xlink">
<g id="graph0" class="graph" transform="scale(1 1) rotate(0) translate(4 280)">
<title>dependencies</title>
<polygon fill="white" stroke="transparent" points="-4,4 -4,-280 1126,-280 1126,4 -4,4"/>
<text text-anchor="start" x="540.01" y="-42.4" font-family="Times-12" font-weight="bold" font-size="14.00">Legend</text>
<polygon fill="#ffffb3" stroke="transparent" points="327,-10 327,-30 347,-30 347,-10 327,-10"/>
<text text-anchor="start" x="350.63" y="-15.4" font-family="Times-12" font-size="14.00"> &#160;Declarations</text>
<polygon fill="#8dd3c7" stroke="transparent" points="440,-10 440,-30 460,-30 460,-10 440,-10"/>
<text text-anchor="start" x="463.73" y="-15.4" font-family="Times-12" font-size="14.00"> &#160;Module</text>
<polygon fill="#80b1d3" stroke="transparent" points="526,-10 526,-30 546,-30 546,-10 526,-10"/>
<text text-anchor="start" x="549.78" y="-15.4" font-family="Times-12" font-size="14.00"> &#160;Bootstrap</text>
<polygon fill="#fdb462" stroke="transparent" points="623,-10 623,-30 643,-30 643,-10 623,-10"/>
<text text-anchor="start" x="646.67" y="-15.4" font-family="Times-12" font-size="14.00"> &#160;Providers</text>
<polygon fill="#fb8072" stroke="transparent" points="719,-10 719,-30 739,-30 739,-10 719,-10"/>
<text text-anchor="start" x="742.73" y="-15.4" font-family="Times-12" font-size="14.00"> &#160;Exports</text>
<g id="clust1" class="cluster">
<title>cluster_AuthModule</title>
<polygon fill="none" stroke="black" stroke-dasharray="1,5" points="8,-70 8,-268 1114,-268 1114,-70 8,-70"/>
</g>
<g id="clust4" class="cluster">
<title>cluster_AuthModule_exports</title>
<polygon fill="none" stroke="black" points="531,-208 531,-260 637,-260 637,-208 531,-208"/>
</g>
<g id="clust6" class="cluster">
<title>cluster_AuthModule_providers</title>
<polygon fill="none" stroke="black" points="16,-78 16,-130 1106,-130 1106,-78 16,-78"/>
</g>
<!-- AuthService  -->
<g id="node1" class="node">
<title>AuthService </title>
<polygon fill="#fb8072" stroke="black" points="628.98,-252 539.02,-252 539.02,-216 628.98,-216 628.98,-252"/>
<text text-anchor="middle" x="584" y="-229.8" font-family="Times,serif" font-size="14.00">AuthService </text>
</g>
<!-- AuthModule -->
<g id="node2" class="node">
<title>AuthModule</title>
<polygon fill="#8dd3c7" stroke="black" points="627.55,-187 624.55,-191 603.55,-191 600.55,-187 540.45,-187 540.45,-151 627.55,-151 627.55,-187"/>
<text text-anchor="middle" x="584" y="-164.8" font-family="Times,serif" font-size="14.00">AuthModule</text>
</g>
<!-- AuthModule&#45;&gt;AuthService  -->
<g id="edge1" class="edge">
<title>AuthModule&#45;&gt;AuthService </title>
<path fill="none" stroke="black" stroke-dasharray="5,2" d="M584,-187.11C584,-187.11 584,-205.99 584,-205.99"/>
<polygon fill="black" stroke="black" points="580.5,-205.99 584,-215.99 587.5,-205.99 580.5,-205.99"/>
</g>
<!-- AuthService -->
<g id="node3" class="node">
<title>AuthService</title>
<ellipse fill="#fdb462" stroke="black" cx="1039" cy="-104" rx="59.11" ry="18"/>
<text text-anchor="middle" x="1039" y="-99.8" font-family="Times,serif" font-size="14.00">AuthService</text>
</g>
<!-- AuthService&#45;&gt;AuthModule -->
<g id="edge2" class="edge">
<title>AuthService&#45;&gt;AuthModule</title>
<path fill="none" stroke="black" d="M1039,-122.29C1039,-144.21 1039,-178 1039,-178 1039,-178 637.63,-178 637.63,-178"/>
<polygon fill="black" stroke="black" points="637.63,-174.5 627.63,-178 637.63,-181.5 637.63,-174.5"/>
</g>
<!-- BlacklistService -->
<g id="node4" class="node">
<title>BlacklistService</title>
<ellipse fill="#fdb462" stroke="black" cx="887" cy="-104" rx="74.15" ry="18"/>
<text text-anchor="middle" x="887" y="-99.8" font-family="Times,serif" font-size="14.00">BlacklistService</text>
</g>
<!-- BlacklistService&#45;&gt;AuthModule -->
<g id="edge3" class="edge">
<title>BlacklistService&#45;&gt;AuthModule</title>
<path fill="none" stroke="black" d="M887,-122.11C887,-141.34 887,-169 887,-169 887,-169 637.74,-169 637.74,-169"/>
<polygon fill="black" stroke="black" points="637.74,-165.5 627.74,-169 637.74,-172.5 637.74,-165.5"/>
</g>
<!-- JwtAuthGuard -->
<g id="node5" class="node">
<title>JwtAuthGuard</title>
<ellipse fill="#fdb462" stroke="black" cx="727" cy="-104" rx="67.78" ry="18"/>
<text text-anchor="middle" x="727" y="-99.8" font-family="Times,serif" font-size="14.00">JwtAuthGuard</text>
</g>
<!-- JwtAuthGuard&#45;&gt;AuthModule -->
<g id="edge4" class="edge">
<title>JwtAuthGuard&#45;&gt;AuthModule</title>
<path fill="none" stroke="black" d="M727,-122.03C727,-138.4 727,-160 727,-160 727,-160 637.68,-160 637.68,-160"/>
<polygon fill="black" stroke="black" points="637.68,-156.5 627.68,-160 637.68,-163.5 637.68,-156.5"/>
</g>
<!-- JwtStrategy -->
<g id="node6" class="node">
<title>JwtStrategy</title>
<ellipse fill="#fdb462" stroke="black" cx="584" cy="-104" rx="56.76" ry="18"/>
<text text-anchor="middle" x="584" y="-99.8" font-family="Times,serif" font-size="14.00">JwtStrategy</text>
</g>
<!-- JwtStrategy&#45;&gt;AuthModule -->
<g id="edge5" class="edge">
<title>JwtStrategy&#45;&gt;AuthModule</title>
<path fill="none" stroke="black" d="M584,-122.11C584,-122.11 584,-140.99 584,-140.99"/>
<polygon fill="black" stroke="black" points="580.5,-140.99 584,-150.99 587.5,-140.99 580.5,-140.99"/>
</g>
<!-- PrismaService -->
<g id="node7" class="node">
<title>PrismaService</title>
<ellipse fill="#fdb462" stroke="black" cx="443" cy="-104" rx="66.63" ry="18"/>
<text text-anchor="middle" x="443" y="-99.8" font-family="Times,serif" font-size="14.00">PrismaService</text>
</g>
<!-- PrismaService&#45;&gt;AuthModule -->
<g id="edge6" class="edge">
<title>PrismaService&#45;&gt;AuthModule</title>
<path fill="none" stroke="black" d="M443,-122.03C443,-138.4 443,-160 443,-160 443,-160 530.16,-160 530.16,-160"/>
<polygon fill="black" stroke="black" points="530.16,-163.5 540.16,-160 530.16,-156.5 530.16,-163.5"/>
</g>
<!-- ResponseService -->
<g id="node8" class="node">
<title>ResponseService</title>
<ellipse fill="#fdb462" stroke="black" cx="281" cy="-104" rx="77" ry="18"/>
<text text-anchor="middle" x="281" y="-99.8" font-family="Times,serif" font-size="14.00">ResponseService</text>
</g>
<!-- ResponseService&#45;&gt;AuthModule -->
<g id="edge7" class="edge">
<title>ResponseService&#45;&gt;AuthModule</title>
<path fill="none" stroke="black" d="M281,-122.11C281,-141.34 281,-169 281,-169 281,-169 530.26,-169 530.26,-169"/>
<polygon fill="black" stroke="black" points="530.26,-172.5 540.26,-169 530.26,-165.5 530.26,-172.5"/>
</g>
<!-- UtilisateurService -->
<g id="node9" class="node">
<title>UtilisateurService</title>
<ellipse fill="#fdb462" stroke="black" cx="105" cy="-104" rx="80.51" ry="18"/>
<text text-anchor="middle" x="105" y="-99.8" font-family="Times,serif" font-size="14.00">UtilisateurService</text>
</g>
<!-- UtilisateurService&#45;&gt;AuthModule -->
<g id="edge8" class="edge">
<title>UtilisateurService&#45;&gt;AuthModule</title>
<path fill="none" stroke="black" d="M105,-122.29C105,-144.21 105,-178 105,-178 105,-178 530.22,-178 530.22,-178"/>
<polygon fill="black" stroke="black" points="530.22,-181.5 540.22,-178 530.22,-174.5 530.22,-181.5"/>
</g>
</g>
</svg>
