<?xml version="1.0" encoding="UTF-8" standalone="no"?>
<!DOCTYPE svg PUBLIC "-//W3C//DTD SVG 1.1//EN"
 "http://www.w3.org/Graphics/SVG/1.1/DTD/svg11.dtd">
<!-- Generated by graphviz version 2.47.0 (20210316.0004)
 -->
<!-- Title: dependencies Pages: 1 -->
<svg width="600pt" height="284pt"
 viewBox="0.00 0.00 600.00 284.00" xmlns="http://www.w3.org/2000/svg" xmlns:xlink="http://www.w3.org/1999/xlink">
<g id="graph0" class="graph" transform="scale(1 1) rotate(0) translate(4 280)">
<title>dependencies</title>
<polygon fill="white" stroke="transparent" points="-4,4 -4,-280 596,-280 596,4 -4,4"/>
<text text-anchor="start" x="275.01" y="-42.4" font-family="Times-12" font-weight="bold" font-size="14.00">Legend</text>
<polygon fill="#ffffb3" stroke="transparent" points="62,-10 62,-30 82,-30 82,-10 62,-10"/>
<text text-anchor="start" x="85.63" y="-15.4" font-family="Times-12" font-size="14.00"> &#160;Declarations</text>
<polygon fill="#8dd3c7" stroke="transparent" points="175,-10 175,-30 195,-30 195,-10 175,-10"/>
<text text-anchor="start" x="198.73" y="-15.4" font-family="Times-12" font-size="14.00"> &#160;Module</text>
<polygon fill="#80b1d3" stroke="transparent" points="261,-10 261,-30 281,-30 281,-10 261,-10"/>
<text text-anchor="start" x="284.78" y="-15.4" font-family="Times-12" font-size="14.00"> &#160;Bootstrap</text>
<polygon fill="#fdb462" stroke="transparent" points="358,-10 358,-30 378,-30 378,-10 358,-10"/>
<text text-anchor="start" x="381.67" y="-15.4" font-family="Times-12" font-size="14.00"> &#160;Providers</text>
<polygon fill="#fb8072" stroke="transparent" points="454,-10 454,-30 474,-30 474,-10 454,-10"/>
<text text-anchor="start" x="477.73" y="-15.4" font-family="Times-12" font-size="14.00"> &#160;Exports</text>
<g id="clust1" class="cluster">
<title>cluster_UtilisateurModule</title>
<polygon fill="none" stroke="black" stroke-dasharray="1,5" points="8,-70 8,-268 584,-268 584,-70 8,-70"/>
</g>
<g id="clust3" class="cluster">
<title>cluster_UtilisateurModule_imports</title>
<polygon fill="none" stroke="black" points="354,-78 354,-130 576,-130 576,-78 354,-78"/>
</g>
<g id="clust6" class="cluster">
<title>cluster_UtilisateurModule_providers</title>
<polygon fill="none" stroke="black" points="16,-78 16,-130 346,-130 346,-78 16,-78"/>
</g>
<g id="clust4" class="cluster">
<title>cluster_UtilisateurModule_exports</title>
<polygon fill="none" stroke="black" points="273,-208 273,-260 409,-260 409,-208 273,-208"/>
</g>
<!-- AuthModule -->
<g id="node1" class="node">
<title>AuthModule</title>
<polygon fill="#8dd3c7" stroke="black" points="567.55,-122 564.55,-126 543.55,-126 540.55,-122 480.45,-122 480.45,-86 567.55,-86 567.55,-122"/>
<text text-anchor="middle" x="524" y="-99.8" font-family="Times,serif" font-size="14.00">AuthModule</text>
</g>
<!-- UtilisateurModule -->
<g id="node3" class="node">
<title>UtilisateurModule</title>
<polygon fill="#8dd3c7" stroke="black" points="400.14,-187 397.14,-191 376.14,-191 373.14,-187 281.86,-187 281.86,-151 400.14,-151 400.14,-187"/>
<text text-anchor="middle" x="341" y="-164.8" font-family="Times,serif" font-size="14.00">UtilisateurModule</text>
</g>
<!-- AuthModule&#45;&gt;UtilisateurModule -->
<g id="edge1" class="edge">
<title>AuthModule&#45;&gt;UtilisateurModule</title>
<path fill="none" stroke="black" d="M524,-122.11C524,-141.34 524,-169 524,-169 524,-169 410.16,-169 410.16,-169"/>
<polygon fill="black" stroke="black" points="410.16,-165.5 400.16,-169 410.16,-172.5 410.16,-165.5"/>
</g>
<!-- UploadModule -->
<g id="node2" class="node">
<title>UploadModule</title>
<polygon fill="#8dd3c7" stroke="black" points="462.26,-122 459.26,-126 438.26,-126 435.26,-122 361.74,-122 361.74,-86 462.26,-86 462.26,-122"/>
<text text-anchor="middle" x="412" y="-99.8" font-family="Times,serif" font-size="14.00">UploadModule</text>
</g>
<!-- UploadModule&#45;&gt;UtilisateurModule -->
<g id="edge2" class="edge">
<title>UploadModule&#45;&gt;UtilisateurModule</title>
<path fill="none" stroke="black" d="M380.97,-122.11C380.97,-122.11 380.97,-140.99 380.97,-140.99"/>
<polygon fill="black" stroke="black" points="377.47,-140.99 380.97,-150.99 384.47,-140.99 377.47,-140.99"/>
</g>
<!-- UtilisateurService  -->
<g id="node4" class="node">
<title>UtilisateurService </title>
<polygon fill="#fb8072" stroke="black" points="401.07,-252 280.93,-252 280.93,-216 401.07,-216 401.07,-252"/>
<text text-anchor="middle" x="341" y="-229.8" font-family="Times,serif" font-size="14.00">UtilisateurService </text>
</g>
<!-- UtilisateurModule&#45;&gt;UtilisateurService  -->
<g id="edge3" class="edge">
<title>UtilisateurModule&#45;&gt;UtilisateurService </title>
<path fill="none" stroke="black" stroke-dasharray="5,2" d="M341,-187.11C341,-187.11 341,-205.99 341,-205.99"/>
<polygon fill="black" stroke="black" points="337.5,-205.99 341,-215.99 344.5,-205.99 337.5,-205.99"/>
</g>
<!-- PrismaService -->
<g id="node5" class="node">
<title>PrismaService</title>
<ellipse fill="#fdb462" stroke="black" cx="271" cy="-104" rx="66.63" ry="18"/>
<text text-anchor="middle" x="271" y="-99.8" font-family="Times,serif" font-size="14.00">PrismaService</text>
</g>
<!-- PrismaService&#45;&gt;UtilisateurModule -->
<g id="edge4" class="edge">
<title>PrismaService&#45;&gt;UtilisateurModule</title>
<path fill="none" stroke="black" d="M309.75,-118.75C309.75,-118.75 309.75,-140.59 309.75,-140.59"/>
<polygon fill="black" stroke="black" points="306.25,-140.59 309.75,-150.59 313.25,-140.59 306.25,-140.59"/>
</g>
<!-- UtilisateurService -->
<g id="node6" class="node">
<title>UtilisateurService</title>
<ellipse fill="#fdb462" stroke="black" cx="105" cy="-104" rx="80.51" ry="18"/>
<text text-anchor="middle" x="105" y="-99.8" font-family="Times,serif" font-size="14.00">UtilisateurService</text>
</g>
<!-- UtilisateurService&#45;&gt;UtilisateurModule -->
<g id="edge5" class="edge">
<title>UtilisateurService&#45;&gt;UtilisateurModule</title>
<path fill="none" stroke="black" d="M105,-122.11C105,-141.34 105,-169 105,-169 105,-169 271.75,-169 271.75,-169"/>
<polygon fill="black" stroke="black" points="271.75,-172.5 281.75,-169 271.75,-165.5 271.75,-172.5"/>
</g>
</g>
</svg>
