<?xml version="1.0" encoding="UTF-8" standalone="no"?>
<!DOCTYPE svg PUBLIC "-//W3C//DTD SVG 1.1//EN"
 "http://www.w3.org/Graphics/SVG/1.1/DTD/svg11.dtd">
<!-- Generated by graphviz version 2.47.0 (20210316.0004)
 -->
<!-- Title: dependencies Pages: 1 -->
<svg width="642pt" height="284pt"
 viewBox="0.00 0.00 642.00 284.00" xmlns="http://www.w3.org/2000/svg" xmlns:xlink="http://www.w3.org/1999/xlink">
<g id="graph0" class="graph" transform="scale(1 1) rotate(0) translate(4 280)">
<title>dependencies</title>
<polygon fill="white" stroke="transparent" points="-4,4 -4,-280 638,-280 638,4 -4,4"/>
<text text-anchor="start" x="296.01" y="-42.4" font-family="Times-12" font-weight="bold" font-size="14.00">Legend</text>
<polygon fill="#ffffb3" stroke="transparent" points="83,-10 83,-30 103,-30 103,-10 83,-10"/>
<text text-anchor="start" x="106.63" y="-15.4" font-family="Times-12" font-size="14.00"> &#160;Declarations</text>
<polygon fill="#8dd3c7" stroke="transparent" points="196,-10 196,-30 216,-30 216,-10 196,-10"/>
<text text-anchor="start" x="219.73" y="-15.4" font-family="Times-12" font-size="14.00"> &#160;Module</text>
<polygon fill="#80b1d3" stroke="transparent" points="282,-10 282,-30 302,-30 302,-10 282,-10"/>
<text text-anchor="start" x="305.78" y="-15.4" font-family="Times-12" font-size="14.00"> &#160;Bootstrap</text>
<polygon fill="#fdb462" stroke="transparent" points="379,-10 379,-30 399,-30 399,-10 379,-10"/>
<text text-anchor="start" x="402.67" y="-15.4" font-family="Times-12" font-size="14.00"> &#160;Providers</text>
<polygon fill="#fb8072" stroke="transparent" points="475,-10 475,-30 495,-30 495,-10 475,-10"/>
<text text-anchor="start" x="498.73" y="-15.4" font-family="Times-12" font-size="14.00"> &#160;Exports</text>
<g id="clust1" class="cluster">
<title>cluster_ServiceModule</title>
<polygon fill="none" stroke="black" stroke-dasharray="1,5" points="8,-70 8,-268 626,-268 626,-70 8,-70"/>
</g>
<g id="clust3" class="cluster">
<title>cluster_ServiceModule_imports</title>
<polygon fill="none" stroke="black" points="502,-78 502,-130 618,-130 618,-78 502,-78"/>
</g>
<g id="clust6" class="cluster">
<title>cluster_ServiceModule_providers</title>
<polygon fill="none" stroke="black" points="16,-78 16,-130 494,-130 494,-78 16,-78"/>
</g>
<g id="clust4" class="cluster">
<title>cluster_ServiceModule_exports</title>
<polygon fill="none" stroke="black" points="278,-208 278,-260 398,-260 398,-208 278,-208"/>
</g>
<!-- UploadModule -->
<g id="node1" class="node">
<title>UploadModule</title>
<polygon fill="#8dd3c7" stroke="black" points="610.26,-122 607.26,-126 586.26,-126 583.26,-122 509.74,-122 509.74,-86 610.26,-86 610.26,-122"/>
<text text-anchor="middle" x="560" y="-99.8" font-family="Times,serif" font-size="14.00">UploadModule</text>
</g>
<!-- ServiceModule -->
<g id="node2" class="node">
<title>ServiceModule</title>
<polygon fill="#8dd3c7" stroke="black" points="388.53,-187 385.53,-191 364.53,-191 361.53,-187 287.47,-187 287.47,-151 388.53,-151 388.53,-187"/>
<text text-anchor="middle" x="338" y="-164.8" font-family="Times,serif" font-size="14.00">ServiceModule</text>
</g>
<!-- UploadModule&#45;&gt;ServiceModule -->
<g id="edge1" class="edge">
<title>UploadModule&#45;&gt;ServiceModule</title>
<path fill="none" stroke="black" d="M560,-122.11C560,-141.34 560,-169 560,-169 560,-169 398.65,-169 398.65,-169"/>
<polygon fill="black" stroke="black" points="398.65,-165.5 388.65,-169 398.65,-172.5 398.65,-165.5"/>
</g>
<!-- ServiceService  -->
<g id="node3" class="node">
<title>ServiceService </title>
<polygon fill="#fb8072" stroke="black" points="389.96,-252 286.04,-252 286.04,-216 389.96,-216 389.96,-252"/>
<text text-anchor="middle" x="338" y="-229.8" font-family="Times,serif" font-size="14.00">ServiceService </text>
</g>
<!-- ServiceModule&#45;&gt;ServiceService  -->
<g id="edge2" class="edge">
<title>ServiceModule&#45;&gt;ServiceService </title>
<path fill="none" stroke="black" stroke-dasharray="5,2" d="M338,-187.11C338,-187.11 338,-205.99 338,-205.99"/>
<polygon fill="black" stroke="black" points="334.5,-205.99 338,-215.99 341.5,-205.99 334.5,-205.99"/>
</g>
<!-- PrismaService -->
<g id="node4" class="node">
<title>PrismaService</title>
<ellipse fill="#fdb462" stroke="black" cx="419" cy="-104" rx="66.63" ry="18"/>
<text text-anchor="middle" x="419" y="-99.8" font-family="Times,serif" font-size="14.00">PrismaService</text>
</g>
<!-- PrismaService&#45;&gt;ServiceModule -->
<g id="edge3" class="edge">
<title>PrismaService&#45;&gt;ServiceModule</title>
<path fill="none" stroke="black" d="M370.48,-116.53C370.48,-116.53 370.48,-140.85 370.48,-140.85"/>
<polygon fill="black" stroke="black" points="366.98,-140.85 370.48,-150.85 373.98,-140.85 366.98,-140.85"/>
</g>
<!-- ResponseService -->
<g id="node5" class="node">
<title>ResponseService</title>
<ellipse fill="#fdb462" stroke="black" cx="257" cy="-104" rx="77" ry="18"/>
<text text-anchor="middle" x="257" y="-99.8" font-family="Times,serif" font-size="14.00">ResponseService</text>
</g>
<!-- ResponseService&#45;&gt;ServiceModule -->
<g id="edge4" class="edge">
<title>ResponseService&#45;&gt;ServiceModule</title>
<path fill="none" stroke="black" d="M310.62,-117.15C310.62,-117.15 310.62,-140.69 310.62,-140.69"/>
<polygon fill="black" stroke="black" points="307.12,-140.69 310.62,-150.69 314.12,-140.69 307.12,-140.69"/>
</g>
<!-- ServiceService -->
<g id="node6" class="node">
<title>ServiceService</title>
<ellipse fill="#fdb462" stroke="black" cx="93" cy="-104" rx="68.89" ry="18"/>
<text text-anchor="middle" x="93" y="-99.8" font-family="Times,serif" font-size="14.00">ServiceService</text>
</g>
<!-- ServiceService&#45;&gt;ServiceModule -->
<g id="edge5" class="edge">
<title>ServiceService&#45;&gt;ServiceModule</title>
<path fill="none" stroke="black" d="M93,-122.11C93,-141.34 93,-169 93,-169 93,-169 277.24,-169 277.24,-169"/>
<polygon fill="black" stroke="black" points="277.24,-172.5 287.24,-169 277.24,-165.5 277.24,-172.5"/>
</g>
</g>
</svg>
