<?xml version="1.0" encoding="UTF-8" standalone="no"?>
<!DOCTYPE svg PUBLIC "-//W3C//DTD SVG 1.1//EN"
 "http://www.w3.org/Graphics/SVG/1.1/DTD/svg11.dtd">
<!-- Generated by graphviz version 2.47.0 (20210316.0004)
 -->
<!-- Title: dependencies Pages: 1 -->
<svg width="504pt" height="211pt"
 viewBox="0.00 0.00 504.00 211.00" xmlns="http://www.w3.org/2000/svg" xmlns:xlink="http://www.w3.org/1999/xlink">
<g id="graph0" class="graph" transform="scale(1 1) rotate(0) translate(4 207)">
<title>dependencies</title>
<polygon fill="white" stroke="transparent" points="-4,4 -4,-207 500,-207 500,4 -4,4"/>
<text text-anchor="start" x="227.01" y="-42.4" font-family="Times-12" font-weight="bold" font-size="14.00">Legend</text>
<polygon fill="#ffffb3" stroke="transparent" points="14,-10 14,-30 34,-30 34,-10 14,-10"/>
<text text-anchor="start" x="37.63" y="-15.4" font-family="Times-12" font-size="14.00"> &#160;Declarations</text>
<polygon fill="#8dd3c7" stroke="transparent" points="127,-10 127,-30 147,-30 147,-10 127,-10"/>
<text text-anchor="start" x="150.73" y="-15.4" font-family="Times-12" font-size="14.00"> &#160;Module</text>
<polygon fill="#80b1d3" stroke="transparent" points="213,-10 213,-30 233,-30 233,-10 213,-10"/>
<text text-anchor="start" x="236.78" y="-15.4" font-family="Times-12" font-size="14.00"> &#160;Bootstrap</text>
<polygon fill="#fdb462" stroke="transparent" points="310,-10 310,-30 330,-30 330,-10 310,-10"/>
<text text-anchor="start" x="333.67" y="-15.4" font-family="Times-12" font-size="14.00"> &#160;Providers</text>
<polygon fill="#fb8072" stroke="transparent" points="406,-10 406,-30 426,-30 426,-10 406,-10"/>
<text text-anchor="start" x="429.73" y="-15.4" font-family="Times-12" font-size="14.00"> &#160;Exports</text>
<g id="clust1" class="cluster">
<title>cluster_ModePaiementModule</title>
<polygon fill="none" stroke="black" stroke-dasharray="1,5" points="72,-70 72,-195 424,-195 424,-70 72,-70"/>
</g>
<g id="clust3" class="cluster">
<title>cluster_ModePaiementModule_imports</title>
<polygon fill="none" stroke="black" points="300,-78 300,-130 416,-130 416,-78 300,-78"/>
</g>
<g id="clust6" class="cluster">
<title>cluster_ModePaiementModule_providers</title>
<polygon fill="none" stroke="black" points="80,-78 80,-130 292,-130 292,-78 80,-78"/>
</g>
<!-- UploadModule -->
<g id="node1" class="node">
<title>UploadModule</title>
<polygon fill="#8dd3c7" stroke="black" points="408.26,-122 405.26,-126 384.26,-126 381.26,-122 307.74,-122 307.74,-86 408.26,-86 408.26,-122"/>
<text text-anchor="middle" x="358" y="-99.8" font-family="Times,serif" font-size="14.00">UploadModule</text>
</g>
<!-- ModePaiementModule -->
<g id="node2" class="node">
<title>ModePaiementModule</title>
<polygon fill="#8dd3c7" stroke="black" points="337.31,-187 334.31,-191 313.31,-191 310.31,-187 192.69,-187 192.69,-151 337.31,-151 337.31,-187"/>
<text text-anchor="middle" x="265" y="-164.8" font-family="Times,serif" font-size="14.00">ModePaiementModule</text>
</g>
<!-- UploadModule&#45;&gt;ModePaiementModule -->
<g id="edge1" class="edge">
<title>UploadModule&#45;&gt;ModePaiementModule</title>
<path fill="none" stroke="black" d="M322.39,-122.11C322.39,-122.11 322.39,-140.99 322.39,-140.99"/>
<polygon fill="black" stroke="black" points="318.89,-140.99 322.39,-150.99 325.89,-140.99 318.89,-140.99"/>
</g>
<!-- ModePaiementService -->
<g id="node3" class="node">
<title>ModePaiementService</title>
<ellipse fill="#fdb462" stroke="black" cx="186" cy="-104" rx="98.41" ry="18"/>
<text text-anchor="middle" x="186" y="-99.8" font-family="Times,serif" font-size="14.00">ModePaiementService</text>
</g>
<!-- ModePaiementService&#45;&gt;ModePaiementModule -->
<g id="edge2" class="edge">
<title>ModePaiementService&#45;&gt;ModePaiementModule</title>
<path fill="none" stroke="black" d="M238.65,-119.4C238.65,-119.4 238.65,-140.94 238.65,-140.94"/>
<polygon fill="black" stroke="black" points="235.15,-140.94 238.65,-150.94 242.15,-140.94 235.15,-140.94"/>
</g>
</g>
</svg>
