<?xml version="1.0" encoding="UTF-8" standalone="no"?>
<!DOCTYPE svg PUBLIC "-//W3C//DTD SVG 1.1//EN"
 "http://www.w3.org/Graphics/SVG/1.1/DTD/svg11.dtd">
<!-- Generated by graphviz version 2.47.0 (20210316.0004)
 -->
<!-- Title: dependencies Pages: 1 -->
<svg width="596pt" height="284pt"
 viewBox="0.00 0.00 596.00 284.00" xmlns="http://www.w3.org/2000/svg" xmlns:xlink="http://www.w3.org/1999/xlink">
<g id="graph0" class="graph" transform="scale(1 1) rotate(0) translate(4 280)">
<title>dependencies</title>
<polygon fill="white" stroke="transparent" points="-4,4 -4,-280 592,-280 592,4 -4,4"/>
<text text-anchor="start" x="273.01" y="-42.4" font-family="Times-12" font-weight="bold" font-size="14.00">Legend</text>
<polygon fill="#ffffb3" stroke="transparent" points="60,-10 60,-30 80,-30 80,-10 60,-10"/>
<text text-anchor="start" x="83.63" y="-15.4" font-family="Times-12" font-size="14.00"> &#160;Declarations</text>
<polygon fill="#8dd3c7" stroke="transparent" points="173,-10 173,-30 193,-30 193,-10 173,-10"/>
<text text-anchor="start" x="196.73" y="-15.4" font-family="Times-12" font-size="14.00"> &#160;Module</text>
<polygon fill="#80b1d3" stroke="transparent" points="259,-10 259,-30 279,-30 279,-10 259,-10"/>
<text text-anchor="start" x="282.78" y="-15.4" font-family="Times-12" font-size="14.00"> &#160;Bootstrap</text>
<polygon fill="#fdb462" stroke="transparent" points="356,-10 356,-30 376,-30 376,-10 356,-10"/>
<text text-anchor="start" x="379.67" y="-15.4" font-family="Times-12" font-size="14.00"> &#160;Providers</text>
<polygon fill="#fb8072" stroke="transparent" points="452,-10 452,-30 472,-30 472,-10 452,-10"/>
<text text-anchor="start" x="475.73" y="-15.4" font-family="Times-12" font-size="14.00"> &#160;Exports</text>
<g id="clust1" class="cluster">
<title>cluster_LogModule</title>
<polygon fill="none" stroke="black" stroke-dasharray="1,5" points="8,-70 8,-268 580,-268 580,-70 8,-70"/>
</g>
<g id="clust4" class="cluster">
<title>cluster_LogModule_exports</title>
<polygon fill="none" stroke="black" points="248,-208 248,-260 348,-260 348,-208 248,-208"/>
</g>
<g id="clust6" class="cluster">
<title>cluster_LogModule_providers</title>
<polygon fill="none" stroke="black" points="138,-78 138,-130 572,-130 572,-78 138,-78"/>
</g>
<g id="clust3" class="cluster">
<title>cluster_LogModule_imports</title>
<polygon fill="none" stroke="black" points="16,-78 16,-130 130,-130 130,-78 16,-78"/>
</g>
<!-- PrismaModule -->
<g id="node1" class="node">
<title>PrismaModule</title>
<polygon fill="#8dd3c7" stroke="black" points="122.43,-122 119.43,-126 98.43,-126 95.43,-122 23.57,-122 23.57,-86 122.43,-86 122.43,-122"/>
<text text-anchor="middle" x="73" y="-99.8" font-family="Times,serif" font-size="14.00">PrismaModule</text>
</g>
<!-- LogModule -->
<g id="node2" class="node">
<title>LogModule</title>
<polygon fill="#8dd3c7" stroke="black" points="339.1,-187 336.1,-191 315.1,-191 312.1,-187 256.9,-187 256.9,-151 339.1,-151 339.1,-187"/>
<text text-anchor="middle" x="298" y="-164.8" font-family="Times,serif" font-size="14.00">LogModule</text>
</g>
<!-- PrismaModule&#45;&gt;LogModule -->
<g id="edge1" class="edge">
<title>PrismaModule&#45;&gt;LogModule</title>
<path fill="none" stroke="black" d="M73,-122.11C73,-141.34 73,-169 73,-169 73,-169 246.73,-169 246.73,-169"/>
<polygon fill="black" stroke="black" points="246.73,-172.5 256.73,-169 246.73,-165.5 246.73,-172.5"/>
</g>
<!-- LogService  -->
<g id="node3" class="node">
<title>LogService </title>
<polygon fill="#fb8072" stroke="black" points="340.03,-252 255.97,-252 255.97,-216 340.03,-216 340.03,-252"/>
<text text-anchor="middle" x="298" y="-229.8" font-family="Times,serif" font-size="14.00">LogService </text>
</g>
<!-- LogModule&#45;&gt;LogService  -->
<g id="edge2" class="edge">
<title>LogModule&#45;&gt;LogService </title>
<path fill="none" stroke="black" stroke-dasharray="5,2" d="M298,-187.11C298,-187.11 298,-205.99 298,-205.99"/>
<polygon fill="black" stroke="black" points="294.5,-205.99 298,-215.99 301.5,-205.99 294.5,-205.99"/>
</g>
<!-- LogListener -->
<g id="node4" class="node">
<title>LogListener</title>
<ellipse fill="#fdb462" stroke="black" cx="506" cy="-104" rx="58.46" ry="18"/>
<text text-anchor="middle" x="506" y="-99.8" font-family="Times,serif" font-size="14.00">LogListener</text>
</g>
<!-- LogListener&#45;&gt;LogModule -->
<g id="edge3" class="edge">
<title>LogListener&#45;&gt;LogModule</title>
<path fill="none" stroke="black" d="M506,-122.11C506,-141.34 506,-169 506,-169 506,-169 349.09,-169 349.09,-169"/>
<polygon fill="black" stroke="black" points="349.09,-165.5 339.09,-169 349.09,-172.5 349.09,-165.5"/>
</g>
<!-- LogService -->
<g id="node5" class="node">
<title>LogService</title>
<ellipse fill="#fdb462" stroke="black" cx="374" cy="-104" rx="55.6" ry="18"/>
<text text-anchor="middle" x="374" y="-99.8" font-family="Times,serif" font-size="14.00">LogService</text>
</g>
<!-- LogService&#45;&gt;LogModule -->
<g id="edge4" class="edge">
<title>LogService&#45;&gt;LogModule</title>
<path fill="none" stroke="black" d="M328.75,-114.44C328.75,-114.44 328.75,-140.97 328.75,-140.97"/>
<polygon fill="black" stroke="black" points="325.25,-140.97 328.75,-150.97 332.25,-140.97 325.25,-140.97"/>
</g>
<!-- ResponseService -->
<g id="node6" class="node">
<title>ResponseService</title>
<ellipse fill="#fdb462" stroke="black" cx="223" cy="-104" rx="77" ry="18"/>
<text text-anchor="middle" x="223" y="-99.8" font-family="Times,serif" font-size="14.00">ResponseService</text>
</g>
<!-- ResponseService&#45;&gt;LogModule -->
<g id="edge5" class="edge">
<title>ResponseService&#45;&gt;LogModule</title>
<path fill="none" stroke="black" d="M278.48,-116.53C278.48,-116.53 278.48,-140.85 278.48,-140.85"/>
<polygon fill="black" stroke="black" points="274.98,-140.85 278.48,-150.85 281.98,-140.85 274.98,-140.85"/>
</g>
</g>
</svg>
