<?xml version="1.0" encoding="UTF-8" standalone="no"?>
<!DOCTYPE svg PUBLIC "-//W3C//DTD SVG 1.1//EN"
 "http://www.w3.org/Graphics/SVG/1.1/DTD/svg11.dtd">
<!-- Generated by graphviz version 2.47.0 (20210316.0004)
 -->
<!-- Title: dependencies Pages: 1 -->
<svg width="596pt" height="284pt"
 viewBox="0.00 0.00 596.00 284.00" xmlns="http://www.w3.org/2000/svg" xmlns:xlink="http://www.w3.org/1999/xlink">
<g id="graph0" class="graph" transform="scale(1 1) rotate(0) translate(4 280)">
<title>dependencies</title>
<polygon fill="white" stroke="transparent" points="-4,4 -4,-280 592,-280 592,4 -4,4"/>
<text text-anchor="start" x="273.01" y="-42.4" font-family="Times-12" font-weight="bold" font-size="14.00">Legend</text>
<polygon fill="#ffffb3" stroke="transparent" points="60,-10 60,-30 80,-30 80,-10 60,-10"/>
<text text-anchor="start" x="83.63" y="-15.4" font-family="Times-12" font-size="14.00"> &#160;Declarations</text>
<polygon fill="#8dd3c7" stroke="transparent" points="173,-10 173,-30 193,-30 193,-10 173,-10"/>
<text text-anchor="start" x="196.73" y="-15.4" font-family="Times-12" font-size="14.00"> &#160;Module</text>
<polygon fill="#80b1d3" stroke="transparent" points="259,-10 259,-30 279,-30 279,-10 259,-10"/>
<text text-anchor="start" x="282.78" y="-15.4" font-family="Times-12" font-size="14.00"> &#160;Bootstrap</text>
<polygon fill="#fdb462" stroke="transparent" points="356,-10 356,-30 376,-30 376,-10 356,-10"/>
<text text-anchor="start" x="379.67" y="-15.4" font-family="Times-12" font-size="14.00"> &#160;Providers</text>
<polygon fill="#fb8072" stroke="transparent" points="452,-10 452,-30 472,-30 472,-10 452,-10"/>
<text text-anchor="start" x="475.73" y="-15.4" font-family="Times-12" font-size="14.00"> &#160;Exports</text>
<g id="clust1" class="cluster">
<title>cluster_LogModule</title>
<polygon fill="none" stroke="black" stroke-dasharray="1,5" points="8,-70 8,-268 580,-268 580,-70 8,-70"/>
</g>
<g id="clust4" class="cluster">
<title>cluster_LogModule_exports</title>
<polygon fill="none" stroke="black" points="268,-208 268,-260 368,-260 368,-208 268,-208"/>
</g>
<g id="clust3" class="cluster">
<title>cluster_LogModule_imports</title>
<polygon fill="none" stroke="black" points="458,-78 458,-130 572,-130 572,-78 458,-78"/>
</g>
<g id="clust6" class="cluster">
<title>cluster_LogModule_providers</title>
<polygon fill="none" stroke="black" points="16,-78 16,-130 450,-130 450,-78 16,-78"/>
</g>
<!-- PrismaModule -->
<g id="node1" class="node">
<title>PrismaModule</title>
<polygon fill="#8dd3c7" stroke="black" points="564.43,-122 561.43,-126 540.43,-126 537.43,-122 465.57,-122 465.57,-86 564.43,-86 564.43,-122"/>
<text text-anchor="middle" x="515" y="-99.8" font-family="Times,serif" font-size="14.00">PrismaModule</text>
</g>
<!-- LogModule -->
<g id="node2" class="node">
<title>LogModule</title>
<polygon fill="#8dd3c7" stroke="black" points="359.1,-187 356.1,-191 335.1,-191 332.1,-187 276.9,-187 276.9,-151 359.1,-151 359.1,-187"/>
<text text-anchor="middle" x="318" y="-164.8" font-family="Times,serif" font-size="14.00">LogModule</text>
</g>
<!-- PrismaModule&#45;&gt;LogModule -->
<g id="edge1" class="edge">
<title>PrismaModule&#45;&gt;LogModule</title>
<path fill="none" stroke="black" d="M515,-122.11C515,-141.34 515,-169 515,-169 515,-169 369.3,-169 369.3,-169"/>
<polygon fill="black" stroke="black" points="369.3,-165.5 359.3,-169 369.3,-172.5 369.3,-165.5"/>
</g>
<!-- LogService  -->
<g id="node3" class="node">
<title>LogService </title>
<polygon fill="#fb8072" stroke="black" points="360.03,-252 275.97,-252 275.97,-216 360.03,-216 360.03,-252"/>
<text text-anchor="middle" x="318" y="-229.8" font-family="Times,serif" font-size="14.00">LogService </text>
</g>
<!-- LogModule&#45;&gt;LogService  -->
<g id="edge2" class="edge">
<title>LogModule&#45;&gt;LogService </title>
<path fill="none" stroke="black" stroke-dasharray="5,2" d="M318,-187.11C318,-187.11 318,-205.99 318,-205.99"/>
<polygon fill="black" stroke="black" points="314.5,-205.99 318,-215.99 321.5,-205.99 314.5,-205.99"/>
</g>
<!-- LogListener -->
<g id="node4" class="node">
<title>LogListener</title>
<ellipse fill="#fdb462" stroke="black" cx="384" cy="-104" rx="58.46" ry="18"/>
<text text-anchor="middle" x="384" y="-99.8" font-family="Times,serif" font-size="14.00">LogListener</text>
</g>
<!-- LogListener&#45;&gt;LogModule -->
<g id="edge3" class="edge">
<title>LogListener&#45;&gt;LogModule</title>
<path fill="none" stroke="black" d="M342.41,-116.84C342.41,-116.84 342.41,-140.52 342.41,-140.52"/>
<polygon fill="black" stroke="black" points="338.91,-140.52 342.41,-150.52 345.91,-140.52 338.91,-140.52"/>
</g>
<!-- LogService -->
<g id="node5" class="node">
<title>LogService</title>
<ellipse fill="#fdb462" stroke="black" cx="252" cy="-104" rx="55.6" ry="18"/>
<text text-anchor="middle" x="252" y="-99.8" font-family="Times,serif" font-size="14.00">LogService</text>
</g>
<!-- LogService&#45;&gt;LogModule -->
<g id="edge4" class="edge">
<title>LogService&#45;&gt;LogModule</title>
<path fill="none" stroke="black" d="M292.25,-116.53C292.25,-116.53 292.25,-140.85 292.25,-140.85"/>
<polygon fill="black" stroke="black" points="288.75,-140.85 292.25,-150.85 295.75,-140.85 288.75,-140.85"/>
</g>
<!-- ResponseService -->
<g id="node6" class="node">
<title>ResponseService</title>
<ellipse fill="#fdb462" stroke="black" cx="101" cy="-104" rx="77" ry="18"/>
<text text-anchor="middle" x="101" y="-99.8" font-family="Times,serif" font-size="14.00">ResponseService</text>
</g>
<!-- ResponseService&#45;&gt;LogModule -->
<g id="edge5" class="edge">
<title>ResponseService&#45;&gt;LogModule</title>
<path fill="none" stroke="black" d="M101,-122.11C101,-141.34 101,-169 101,-169 101,-169 266.93,-169 266.93,-169"/>
<polygon fill="black" stroke="black" points="266.93,-172.5 276.93,-169 266.93,-165.5 266.93,-172.5"/>
</g>
</g>
</svg>
