<?xml version="1.0" encoding="UTF-8" standalone="no"?>
<!DOCTYPE svg PUBLIC "-//W3C//DTD SVG 1.1//EN"
 "http://www.w3.org/Graphics/SVG/1.1/DTD/svg11.dtd">
<!-- Generated by graphviz version 2.47.0 (20210316.0004)
 -->
<!-- Title: dependencies Pages: 1 -->
<svg width="504pt" height="284pt"
 viewBox="0.00 0.00 504.00 284.00" xmlns="http://www.w3.org/2000/svg" xmlns:xlink="http://www.w3.org/1999/xlink">
<g id="graph0" class="graph" transform="scale(1 1) rotate(0) translate(4 280)">
<title>dependencies</title>
<polygon fill="white" stroke="transparent" points="-4,4 -4,-280 500,-280 500,4 -4,4"/>
<text text-anchor="start" x="227.01" y="-42.4" font-family="Times-12" font-weight="bold" font-size="14.00">Legend</text>
<polygon fill="#ffffb3" stroke="transparent" points="14,-10 14,-30 34,-30 34,-10 14,-10"/>
<text text-anchor="start" x="37.63" y="-15.4" font-family="Times-12" font-size="14.00"> &#160;Declarations</text>
<polygon fill="#8dd3c7" stroke="transparent" points="127,-10 127,-30 147,-30 147,-10 127,-10"/>
<text text-anchor="start" x="150.73" y="-15.4" font-family="Times-12" font-size="14.00"> &#160;Module</text>
<polygon fill="#80b1d3" stroke="transparent" points="213,-10 213,-30 233,-30 233,-10 213,-10"/>
<text text-anchor="start" x="236.78" y="-15.4" font-family="Times-12" font-size="14.00"> &#160;Bootstrap</text>
<polygon fill="#fdb462" stroke="transparent" points="310,-10 310,-30 330,-30 330,-10 310,-10"/>
<text text-anchor="start" x="333.67" y="-15.4" font-family="Times-12" font-size="14.00"> &#160;Providers</text>
<polygon fill="#fb8072" stroke="transparent" points="406,-10 406,-30 426,-30 426,-10 406,-10"/>
<text text-anchor="start" x="429.73" y="-15.4" font-family="Times-12" font-size="14.00"> &#160;Exports</text>
<g id="clust1" class="cluster">
<title>cluster_UploadModule</title>
<polygon fill="none" stroke="black" stroke-dasharray="1,5" points="71.5,-70 71.5,-268 424.5,-268 424.5,-70 71.5,-70"/>
</g>
<g id="clust6" class="cluster">
<title>cluster_UploadModule_providers</title>
<polygon fill="none" stroke="black" points="79.5,-78 79.5,-130 416.5,-130 416.5,-78 79.5,-78"/>
</g>
<g id="clust4" class="cluster">
<title>cluster_UploadModule_exports</title>
<polygon fill="none" stroke="black" points="181.5,-208 181.5,-260 299.5,-260 299.5,-208 181.5,-208"/>
</g>
<!-- UploadService  -->
<g id="node1" class="node">
<title>UploadService </title>
<polygon fill="#fb8072" stroke="black" points="291.69,-252 189.31,-252 189.31,-216 291.69,-216 291.69,-252"/>
<text text-anchor="middle" x="240.5" y="-229.8" font-family="Times,serif" font-size="14.00">UploadService </text>
</g>
<!-- UploadModule -->
<g id="node2" class="node">
<title>UploadModule</title>
<polygon fill="#8dd3c7" stroke="black" points="290.76,-187 287.76,-191 266.76,-191 263.76,-187 190.24,-187 190.24,-151 290.76,-151 290.76,-187"/>
<text text-anchor="middle" x="240.5" y="-164.8" font-family="Times,serif" font-size="14.00">UploadModule</text>
</g>
<!-- UploadModule&#45;&gt;UploadService  -->
<g id="edge1" class="edge">
<title>UploadModule&#45;&gt;UploadService </title>
<path fill="none" stroke="black" stroke-dasharray="5,2" d="M240.5,-187.11C240.5,-187.11 240.5,-205.99 240.5,-205.99"/>
<polygon fill="black" stroke="black" points="237,-205.99 240.5,-215.99 244,-205.99 237,-205.99"/>
</g>
<!-- CloudinaryService -->
<g id="node3" class="node">
<title>CloudinaryService</title>
<ellipse fill="#fdb462" stroke="black" cx="325.5" cy="-104" rx="83.39" ry="18"/>
<text text-anchor="middle" x="325.5" y="-99.8" font-family="Times,serif" font-size="14.00">CloudinaryService</text>
</g>
<!-- CloudinaryService&#45;&gt;UploadModule -->
<g id="edge2" class="edge">
<title>CloudinaryService&#45;&gt;UploadModule</title>
<path fill="none" stroke="black" d="M266.47,-116.84C266.47,-116.84 266.47,-140.52 266.47,-140.52"/>
<polygon fill="black" stroke="black" points="262.97,-140.52 266.47,-150.52 269.97,-140.52 262.97,-140.52"/>
</g>
<!-- UploadService -->
<g id="node4" class="node">
<title>UploadService</title>
<ellipse fill="#fdb462" stroke="black" cx="155.5" cy="-104" rx="68.34" ry="18"/>
<text text-anchor="middle" x="155.5" y="-99.8" font-family="Times,serif" font-size="14.00">UploadService</text>
</g>
<!-- UploadService&#45;&gt;UploadModule -->
<g id="edge3" class="edge">
<title>UploadService&#45;&gt;UploadModule</title>
<path fill="none" stroke="black" d="M207.02,-115.92C207.02,-115.92 207.02,-140.77 207.02,-140.77"/>
<polygon fill="black" stroke="black" points="203.52,-140.77 207.02,-150.77 210.52,-140.77 203.52,-140.77"/>
</g>
</g>
</svg>
