<?xml version="1.0" encoding="UTF-8" standalone="no"?>
<!DOCTYPE svg PUBLIC "-//W3C//DTD SVG 1.1//EN"
 "http://www.w3.org/Graphics/SVG/1.1/DTD/svg11.dtd">
<!-- Generated by graphviz version 2.47.0 (20210316.0004)
 -->
<!-- Title: dependencies Pages: 1 -->
<svg width="566pt" height="284pt"
 viewBox="0.00 0.00 566.00 284.00" xmlns="http://www.w3.org/2000/svg" xmlns:xlink="http://www.w3.org/1999/xlink">
<g id="graph0" class="graph" transform="scale(1 1) rotate(0) translate(4 280)">
<title>dependencies</title>
<polygon fill="white" stroke="transparent" points="-4,4 -4,-280 562,-280 562,4 -4,4"/>
<text text-anchor="start" x="258.01" y="-42.4" font-family="Times-12" font-weight="bold" font-size="14.00">Legend</text>
<polygon fill="#ffffb3" stroke="transparent" points="45,-10 45,-30 65,-30 65,-10 45,-10"/>
<text text-anchor="start" x="68.63" y="-15.4" font-family="Times-12" font-size="14.00"> &#160;Declarations</text>
<polygon fill="#8dd3c7" stroke="transparent" points="158,-10 158,-30 178,-30 178,-10 158,-10"/>
<text text-anchor="start" x="181.73" y="-15.4" font-family="Times-12" font-size="14.00"> &#160;Module</text>
<polygon fill="#80b1d3" stroke="transparent" points="244,-10 244,-30 264,-30 264,-10 244,-10"/>
<text text-anchor="start" x="267.78" y="-15.4" font-family="Times-12" font-size="14.00"> &#160;Bootstrap</text>
<polygon fill="#fdb462" stroke="transparent" points="341,-10 341,-30 361,-30 361,-10 341,-10"/>
<text text-anchor="start" x="364.67" y="-15.4" font-family="Times-12" font-size="14.00"> &#160;Providers</text>
<polygon fill="#fb8072" stroke="transparent" points="437,-10 437,-30 457,-30 457,-10 437,-10"/>
<text text-anchor="start" x="460.73" y="-15.4" font-family="Times-12" font-size="14.00"> &#160;Exports</text>
<g id="clust1" class="cluster">
<title>cluster_ValidationModule</title>
<polygon fill="none" stroke="black" stroke-dasharray="1,5" points="8,-70 8,-268 550,-268 550,-70 8,-70"/>
</g>
<g id="clust4" class="cluster">
<title>cluster_ValidationModule_exports</title>
<polygon fill="none" stroke="black" points="77,-208 77,-260 483,-260 483,-208 77,-208"/>
</g>
<g id="clust6" class="cluster">
<title>cluster_ValidationModule_providers</title>
<polygon fill="none" stroke="black" points="16,-78 16,-130 542,-130 542,-78 16,-78"/>
</g>
<!-- ExceptionService  -->
<g id="node1" class="node">
<title>ExceptionService </title>
<polygon fill="#fb8072" stroke="black" points="475.24,-252 356.76,-252 356.76,-216 475.24,-216 475.24,-252"/>
<text text-anchor="middle" x="416" y="-229.8" font-family="Times,serif" font-size="14.00">ExceptionService </text>
</g>
<!-- ResponseService  -->
<g id="node2" class="node">
<title>ResponseService </title>
<polygon fill="#fb8072" stroke="black" points="338.63,-252 223.37,-252 223.37,-216 338.63,-216 338.63,-252"/>
<text text-anchor="middle" x="281" y="-229.8" font-family="Times,serif" font-size="14.00">ResponseService </text>
</g>
<!-- ValidationService  -->
<g id="node3" class="node">
<title>ValidationService </title>
<polygon fill="#fb8072" stroke="black" points="205.08,-252 84.92,-252 84.92,-216 205.08,-216 205.08,-252"/>
<text text-anchor="middle" x="145" y="-229.8" font-family="Times,serif" font-size="14.00">ValidationService </text>
</g>
<!-- ValidationModule -->
<g id="node4" class="node">
<title>ValidationModule</title>
<polygon fill="#8dd3c7" stroke="black" points="340.15,-187 337.15,-191 316.15,-191 313.15,-187 221.85,-187 221.85,-151 340.15,-151 340.15,-187"/>
<text text-anchor="middle" x="281" y="-164.8" font-family="Times,serif" font-size="14.00">ValidationModule</text>
</g>
<!-- ValidationModule&#45;&gt;ExceptionService  -->
<g id="edge1" class="edge">
<title>ValidationModule&#45;&gt;ExceptionService </title>
<path fill="none" stroke="black" stroke-dasharray="5,2" d="M340.21,-175C355.09,-175 366.93,-175 366.93,-175 366.93,-175 366.93,-205.98 366.93,-205.98"/>
<polygon fill="black" stroke="black" points="363.43,-205.98 366.93,-215.98 370.43,-205.98 363.43,-205.98"/>
</g>
<!-- ValidationModule&#45;&gt;ResponseService  -->
<g id="edge2" class="edge">
<title>ValidationModule&#45;&gt;ResponseService </title>
<path fill="none" stroke="black" stroke-dasharray="5,2" d="M281,-187.11C281,-187.11 281,-205.99 281,-205.99"/>
<polygon fill="black" stroke="black" points="277.5,-205.99 281,-215.99 284.5,-205.99 277.5,-205.99"/>
</g>
<!-- ValidationModule&#45;&gt;ValidationService  -->
<g id="edge3" class="edge">
<title>ValidationModule&#45;&gt;ValidationService </title>
<path fill="none" stroke="black" stroke-dasharray="5,2" d="M221.65,-175C206.74,-175 194.88,-175 194.88,-175 194.88,-175 194.88,-205.98 194.88,-205.98"/>
<polygon fill="black" stroke="black" points="191.38,-205.98 194.88,-215.98 198.38,-205.98 191.38,-205.98"/>
</g>
<!-- ExceptionService -->
<g id="node5" class="node">
<title>ExceptionService</title>
<ellipse fill="#fdb462" stroke="black" cx="455" cy="-104" rx="79.29" ry="18"/>
<text text-anchor="middle" x="455" y="-99.8" font-family="Times,serif" font-size="14.00">ExceptionService</text>
</g>
<!-- ExceptionService&#45;&gt;ValidationModule -->
<g id="edge4" class="edge">
<title>ExceptionService&#45;&gt;ValidationModule</title>
<path fill="none" stroke="black" d="M425.49,-120.75C425.49,-138.19 425.49,-163 425.49,-163 425.49,-163 350.19,-163 350.19,-163"/>
<polygon fill="black" stroke="black" points="350.19,-159.5 340.19,-163 350.19,-166.5 350.19,-159.5"/>
</g>
<!-- ResponseService -->
<g id="node6" class="node">
<title>ResponseService</title>
<ellipse fill="#fdb462" stroke="black" cx="281" cy="-104" rx="77" ry="18"/>
<text text-anchor="middle" x="281" y="-99.8" font-family="Times,serif" font-size="14.00">ResponseService</text>
</g>
<!-- ResponseService&#45;&gt;ValidationModule -->
<g id="edge5" class="edge">
<title>ResponseService&#45;&gt;ValidationModule</title>
<path fill="none" stroke="black" d="M281,-122.11C281,-122.11 281,-140.99 281,-140.99"/>
<polygon fill="black" stroke="black" points="277.5,-140.99 281,-150.99 284.5,-140.99 277.5,-140.99"/>
</g>
<!-- ValidationService -->
<g id="node7" class="node">
<title>ValidationService</title>
<ellipse fill="#fdb462" stroke="black" cx="105" cy="-104" rx="80.51" ry="18"/>
<text text-anchor="middle" x="105" y="-99.8" font-family="Times,serif" font-size="14.00">ValidationService</text>
</g>
<!-- ValidationService&#45;&gt;ValidationModule -->
<g id="edge6" class="edge">
<title>ValidationService&#45;&gt;ValidationModule</title>
<path fill="none" stroke="black" d="M135.23,-120.75C135.23,-138.19 135.23,-163 135.23,-163 135.23,-163 211.71,-163 211.71,-163"/>
<polygon fill="black" stroke="black" points="211.71,-166.5 221.71,-163 211.71,-159.5 211.71,-166.5"/>
</g>
</g>
</svg>
