<?xml version="1.0" encoding="UTF-8" standalone="no"?>
<!DOCTYPE svg PUBLIC "-//W3C//DTD SVG 1.1//EN"
 "http://www.w3.org/Graphics/SVG/1.1/DTD/svg11.dtd">
<!-- Generated by graphviz version 2.47.0 (20210316.0004)
 -->
<!-- Title: dependencies Pages: 1 -->
<svg width="3959pt" height="211pt"
 viewBox="0.00 0.00 3959.00 211.00" xmlns="http://www.w3.org/2000/svg" xmlns:xlink="http://www.w3.org/1999/xlink">
<g id="graph0" class="graph" transform="scale(1 1) rotate(0) translate(4 207)">
<title>dependencies</title>
<polygon fill="white" stroke="transparent" points="-4,4 -4,-207 3955,-207 3955,4 -4,4"/>
<text text-anchor="start" x="1954.51" y="-42.4" font-family="Times-12" font-weight="bold" font-size="14.00">Legend</text>
<polygon fill="#ffffb3" stroke="transparent" points="1741.5,-10 1741.5,-30 1761.5,-30 1761.5,-10 1741.5,-10"/>
<text text-anchor="start" x="1765.13" y="-15.4" font-family="Times-12" font-size="14.00"> &#160;Declarations</text>
<polygon fill="#8dd3c7" stroke="transparent" points="1854.5,-10 1854.5,-30 1874.5,-30 1874.5,-10 1854.5,-10"/>
<text text-anchor="start" x="1878.23" y="-15.4" font-family="Times-12" font-size="14.00"> &#160;Module</text>
<polygon fill="#80b1d3" stroke="transparent" points="1940.5,-10 1940.5,-30 1960.5,-30 1960.5,-10 1940.5,-10"/>
<text text-anchor="start" x="1964.28" y="-15.4" font-family="Times-12" font-size="14.00"> &#160;Bootstrap</text>
<polygon fill="#fdb462" stroke="transparent" points="2037.5,-10 2037.5,-30 2057.5,-30 2057.5,-10 2037.5,-10"/>
<text text-anchor="start" x="2061.17" y="-15.4" font-family="Times-12" font-size="14.00"> &#160;Providers</text>
<polygon fill="#fb8072" stroke="transparent" points="2133.5,-10 2133.5,-30 2153.5,-30 2153.5,-10 2133.5,-10"/>
<text text-anchor="start" x="2157.23" y="-15.4" font-family="Times-12" font-size="14.00"> &#160;Exports</text>
<g id="clust1" class="cluster">
<title>cluster_AppModule</title>
<polygon fill="none" stroke="black" stroke-dasharray="1,5" points="8,-70 8,-195 3943,-195 3943,-70 8,-70"/>
</g>
<g id="clust3" class="cluster">
<title>cluster_AppModule_imports</title>
<polygon fill="none" stroke="black" points="1910,-78 1910,-130 3935,-130 3935,-78 1910,-78"/>
</g>
<g id="clust6" class="cluster">
<title>cluster_AppModule_providers</title>
<polygon fill="none" stroke="black" points="16,-78 16,-130 1902,-130 1902,-78 16,-78"/>
</g>
<!-- AuthModule -->
<g id="node1" class="node">
<title>AuthModule</title>
<polygon fill="#8dd3c7" stroke="black" points="3926.55,-122 3923.55,-126 3902.55,-126 3899.55,-122 3839.45,-122 3839.45,-86 3926.55,-86 3926.55,-122"/>
<text text-anchor="middle" x="3883" y="-99.8" font-family="Times,serif" font-size="14.00">AuthModule</text>
</g>
<!-- AppModule -->
<g id="node16" class="node">
<title>AppModule</title>
<polygon fill="#8dd3c7" stroke="black" points="2219.66,-187 2216.66,-191 2195.66,-191 2192.66,-187 2136.34,-187 2136.34,-151 2219.66,-151 2219.66,-187"/>
<text text-anchor="middle" x="2178" y="-164.8" font-family="Times,serif" font-size="14.00">AppModule</text>
</g>
<!-- AuthModule&#45;&gt;AppModule -->
<g id="edge1" class="edge">
<title>AuthModule&#45;&gt;AppModule</title>
<path fill="none" stroke="black" d="M3883,-122.38C3883,-146.28 3883,-185 3883,-185 3883,-185 2229.72,-185 2229.72,-185"/>
<polygon fill="black" stroke="black" points="2229.72,-181.5 2219.72,-185 2229.72,-188.5 2229.72,-181.5"/>
</g>
<!-- DisponibiliteModule -->
<g id="node2" class="node">
<title>DisponibiliteModule</title>
<polygon fill="#8dd3c7" stroke="black" points="3821.16,-122 3818.16,-126 3797.16,-126 3794.16,-122 3688.84,-122 3688.84,-86 3821.16,-86 3821.16,-122"/>
<text text-anchor="middle" x="3755" y="-99.8" font-family="Times,serif" font-size="14.00">DisponibiliteModule</text>
</g>
<!-- DisponibiliteModule&#45;&gt;AppModule -->
<g id="edge2" class="edge">
<title>DisponibiliteModule&#45;&gt;AppModule</title>
<path fill="none" stroke="black" d="M3755,-122.09C3755,-145.13 3755,-182 3755,-182 3755,-182 2229.77,-182 2229.77,-182"/>
<polygon fill="black" stroke="black" points="2229.77,-178.5 2219.77,-182 2229.77,-185.5 2229.77,-178.5"/>
</g>
<!-- LogModule -->
<g id="node3" class="node">
<title>LogModule</title>
<polygon fill="#8dd3c7" stroke="black" points="3671.1,-122 3668.1,-126 3647.1,-126 3644.1,-122 3588.9,-122 3588.9,-86 3671.1,-86 3671.1,-122"/>
<text text-anchor="middle" x="3630" y="-99.8" font-family="Times,serif" font-size="14.00">LogModule</text>
</g>
<!-- LogModule&#45;&gt;AppModule -->
<g id="edge3" class="edge">
<title>LogModule&#45;&gt;AppModule</title>
<path fill="none" stroke="black" d="M3630,-122.16C3630,-144.35 3630,-179 3630,-179 3630,-179 2229.89,-179 2229.89,-179"/>
<polygon fill="black" stroke="black" points="2229.89,-175.5 2219.89,-179 2229.89,-182.5 2229.89,-175.5"/>
</g>
<!-- MedecinSousserviceModule -->
<g id="node4" class="node">
<title>MedecinSousserviceModule</title>
<polygon fill="#8dd3c7" stroke="black" points="3570.9,-122 3567.9,-126 3546.9,-126 3543.9,-122 3395.1,-122 3395.1,-86 3570.9,-86 3570.9,-122"/>
<text text-anchor="middle" x="3483" y="-99.8" font-family="Times,serif" font-size="14.00">MedecinSousserviceModule</text>
</g>
<!-- MedecinSousserviceModule&#45;&gt;AppModule -->
<g id="edge4" class="edge">
<title>MedecinSousserviceModule&#45;&gt;AppModule</title>
<path fill="none" stroke="black" d="M3483,-122.17C3483,-143.5 3483,-176 3483,-176 3483,-176 2229.94,-176 2229.94,-176"/>
<polygon fill="black" stroke="black" points="2229.94,-172.5 2219.94,-176 2229.94,-179.5 2229.94,-172.5"/>
</g>
<!-- ModePaiementModule -->
<g id="node5" class="node">
<title>ModePaiementModule</title>
<polygon fill="#8dd3c7" stroke="black" points="3377.31,-122 3374.31,-126 3353.31,-126 3350.31,-122 3232.69,-122 3232.69,-86 3377.31,-86 3377.31,-122"/>
<text text-anchor="middle" x="3305" y="-99.8" font-family="Times,serif" font-size="14.00">ModePaiementModule</text>
</g>
<!-- ModePaiementModule&#45;&gt;AppModule -->
<g id="edge5" class="edge">
<title>ModePaiementModule&#45;&gt;AppModule</title>
<path fill="none" stroke="black" d="M3305,-122.03C3305,-142.77 3305,-174 3305,-174 3305,-174 2229.78,-174 2229.78,-174"/>
<polygon fill="black" stroke="black" points="2229.78,-170.5 2219.78,-174 2229.78,-177.5 2229.78,-170.5"/>
</g>
<!-- PaiementModule -->
<g id="node6" class="node">
<title>PaiementModule</title>
<polygon fill="#8dd3c7" stroke="black" points="3214.65,-122 3211.65,-126 3190.65,-126 3187.65,-122 3103.35,-122 3103.35,-86 3214.65,-86 3214.65,-122"/>
<text text-anchor="middle" x="3159" y="-99.8" font-family="Times,serif" font-size="14.00">PaiementModule</text>
</g>
<!-- PaiementModule&#45;&gt;AppModule -->
<g id="edge6" class="edge">
<title>PaiementModule&#45;&gt;AppModule</title>
<path fill="none" stroke="black" d="M3159,-122.31C3159,-142.15 3159,-171 3159,-171 3159,-171 2229.84,-171 2229.84,-171"/>
<polygon fill="black" stroke="black" points="2229.84,-167.5 2219.84,-171 2229.84,-174.5 2229.84,-167.5"/>
</g>
<!-- PrismaModule -->
<g id="node7" class="node">
<title>PrismaModule</title>
<polygon fill="#8dd3c7" stroke="black" points="3085.43,-122 3082.43,-126 3061.43,-126 3058.43,-122 2986.57,-122 2986.57,-86 3085.43,-86 3085.43,-122"/>
<text text-anchor="middle" x="3036" y="-99.8" font-family="Times,serif" font-size="14.00">PrismaModule</text>
</g>
<!-- PrismaModule&#45;&gt;AppModule -->
<g id="edge7" class="edge">
<title>PrismaModule&#45;&gt;AppModule</title>
<path fill="none" stroke="black" d="M3036,-122.17C3036,-141.09 3036,-168 3036,-168 3036,-168 2229.67,-168 2229.67,-168"/>
<polygon fill="black" stroke="black" points="2229.67,-164.5 2219.67,-168 2229.67,-171.5 2229.67,-164.5"/>
</g>
<!-- PrivilegeModule -->
<g id="node8" class="node">
<title>PrivilegeModule</title>
<polygon fill="#8dd3c7" stroke="black" points="2969.09,-122 2966.09,-126 2945.09,-126 2942.09,-122 2858.91,-122 2858.91,-86 2969.09,-86 2969.09,-122"/>
<text text-anchor="middle" x="2914" y="-99.8" font-family="Times,serif" font-size="14.00">PrivilegeModule</text>
</g>
<!-- PrivilegeModule&#45;&gt;AppModule -->
<g id="edge8" class="edge">
<title>PrivilegeModule&#45;&gt;AppModule</title>
<path fill="none" stroke="black" d="M2914,-122.3C2914,-140.27 2914,-165 2914,-165 2914,-165 2229.68,-165 2229.68,-165"/>
<polygon fill="black" stroke="black" points="2229.68,-161.5 2219.68,-165 2229.68,-168.5 2229.68,-161.5"/>
</g>
<!-- ServiceModule -->
<g id="node9" class="node">
<title>ServiceModule</title>
<polygon fill="#8dd3c7" stroke="black" points="2840.53,-122 2837.53,-126 2816.53,-126 2813.53,-122 2739.47,-122 2739.47,-86 2840.53,-86 2840.53,-122"/>
<text text-anchor="middle" x="2790" y="-99.8" font-family="Times,serif" font-size="14.00">ServiceModule</text>
</g>
<!-- ServiceModule&#45;&gt;AppModule -->
<g id="edge9" class="edge">
<title>ServiceModule&#45;&gt;AppModule</title>
<path fill="none" stroke="black" d="M2790,-122.02C2790,-139.37 2790,-163 2790,-163 2790,-163 2230.07,-163 2230.07,-163"/>
<polygon fill="black" stroke="black" points="2230.07,-159.5 2220.07,-163 2230.07,-166.5 2230.07,-159.5"/>
</g>
<!-- SousServiceModule -->
<g id="node10" class="node">
<title>SousServiceModule</title>
<polygon fill="#8dd3c7" stroke="black" points="2721.25,-122 2718.25,-126 2697.25,-126 2694.25,-122 2592.75,-122 2592.75,-86 2721.25,-86 2721.25,-122"/>
<text text-anchor="middle" x="2657" y="-99.8" font-family="Times,serif" font-size="14.00">SousServiceModule</text>
</g>
<!-- SousServiceModule&#45;&gt;AppModule -->
<g id="edge10" class="edge">
<title>SousServiceModule&#45;&gt;AppModule</title>
<path fill="none" stroke="black" d="M2657,-122.03C2657,-138.4 2657,-160 2657,-160 2657,-160 2229.67,-160 2229.67,-160"/>
<polygon fill="black" stroke="black" points="2229.67,-156.5 2219.67,-160 2229.67,-163.5 2229.67,-156.5"/>
</g>
<!-- StatutReservationModule -->
<g id="node11" class="node">
<title>StatutReservationModule</title>
<polygon fill="#8dd3c7" stroke="black" points="2574.59,-122 2571.59,-126 2550.59,-126 2547.59,-122 2415.41,-122 2415.41,-86 2574.59,-86 2574.59,-122"/>
<text text-anchor="middle" x="2495" y="-99.8" font-family="Times,serif" font-size="14.00">StatutReservationModule</text>
</g>
<!-- StatutReservationModule&#45;&gt;AppModule -->
<g id="edge11" class="edge">
<title>StatutReservationModule&#45;&gt;AppModule</title>
<path fill="none" stroke="black" d="M2495,-122.24C2495,-137.57 2495,-157 2495,-157 2495,-157 2229.77,-157 2229.77,-157"/>
<polygon fill="black" stroke="black" points="2229.77,-153.5 2219.77,-157 2229.77,-160.5 2229.77,-153.5"/>
</g>
<!-- TarifModule -->
<g id="node12" class="node">
<title>TarifModule</title>
<polygon fill="#8dd3c7" stroke="black" points="2397.53,-122 2394.53,-126 2373.53,-126 2370.53,-122 2310.47,-122 2310.47,-86 2397.53,-86 2397.53,-122"/>
<text text-anchor="middle" x="2354" y="-99.8" font-family="Times,serif" font-size="14.00">TarifModule</text>
</g>
<!-- TarifModule&#45;&gt;AppModule -->
<g id="edge12" class="edge">
<title>TarifModule&#45;&gt;AppModule</title>
<path fill="none" stroke="black" d="M2354,-122.05C2354,-136.37 2354,-154 2354,-154 2354,-154 2229.71,-154 2229.71,-154"/>
<polygon fill="black" stroke="black" points="2229.71,-150.5 2219.71,-154 2229.71,-157.5 2229.71,-150.5"/>
</g>
<!-- UploadModule -->
<g id="node13" class="node">
<title>UploadModule</title>
<polygon fill="#8dd3c7" stroke="black" points="2292.26,-122 2289.26,-126 2268.26,-126 2265.26,-122 2191.74,-122 2191.74,-86 2292.26,-86 2292.26,-122"/>
<text text-anchor="middle" x="2242" y="-99.8" font-family="Times,serif" font-size="14.00">UploadModule</text>
</g>
<!-- UploadModule&#45;&gt;AppModule -->
<g id="edge13" class="edge">
<title>UploadModule&#45;&gt;AppModule</title>
<path fill="none" stroke="black" d="M2205.72,-122.11C2205.72,-122.11 2205.72,-140.99 2205.72,-140.99"/>
<polygon fill="black" stroke="black" points="2202.22,-140.99 2205.72,-150.99 2209.22,-140.99 2202.22,-140.99"/>
</g>
<!-- UtilisateurModule -->
<g id="node14" class="node">
<title>UtilisateurModule</title>
<polygon fill="#8dd3c7" stroke="black" points="2173.14,-122 2170.14,-126 2149.14,-126 2146.14,-122 2054.86,-122 2054.86,-86 2173.14,-86 2173.14,-122"/>
<text text-anchor="middle" x="2114" y="-99.8" font-family="Times,serif" font-size="14.00">UtilisateurModule</text>
</g>
<!-- UtilisateurModule&#45;&gt;AppModule -->
<g id="edge14" class="edge">
<title>UtilisateurModule&#45;&gt;AppModule</title>
<path fill="none" stroke="black" d="M2154.75,-122.11C2154.75,-122.11 2154.75,-140.99 2154.75,-140.99"/>
<polygon fill="black" stroke="black" points="2151.25,-140.99 2154.75,-150.99 2158.25,-140.99 2151.25,-140.99"/>
</g>
<!-- ValidationModule -->
<g id="node15" class="node">
<title>ValidationModule</title>
<polygon fill="#8dd3c7" stroke="black" points="2036.15,-122 2033.15,-126 2012.15,-126 2009.15,-122 1917.85,-122 1917.85,-86 2036.15,-86 2036.15,-122"/>
<text text-anchor="middle" x="1977" y="-99.8" font-family="Times,serif" font-size="14.00">ValidationModule</text>
</g>
<!-- ValidationModule&#45;&gt;AppModule -->
<g id="edge15" class="edge">
<title>ValidationModule&#45;&gt;AppModule</title>
<path fill="none" stroke="black" d="M1977,-122.05C1977,-136.37 1977,-154 1977,-154 1977,-154 2125.86,-154 2125.86,-154"/>
<polygon fill="black" stroke="black" points="2125.86,-157.5 2135.86,-154 2125.86,-150.5 2125.86,-157.5"/>
</g>
<!-- AppService -->
<g id="node17" class="node">
<title>AppService</title>
<ellipse fill="#fdb462" stroke="black" cx="1837" cy="-104" rx="56.74" ry="18"/>
<text text-anchor="middle" x="1837" y="-99.8" font-family="Times,serif" font-size="14.00">AppService</text>
</g>
<!-- AppService&#45;&gt;AppModule -->
<g id="edge16" class="edge">
<title>AppService&#45;&gt;AppModule</title>
<path fill="none" stroke="black" d="M1837,-122.24C1837,-137.57 1837,-157 1837,-157 1837,-157 2126.19,-157 2126.19,-157"/>
<polygon fill="black" stroke="black" points="2126.19,-160.5 2136.19,-157 2126.19,-153.5 2126.19,-160.5"/>
</g>
<!-- DeviseService -->
<g id="node18" class="node">
<title>DeviseService</title>
<ellipse fill="#fdb462" stroke="black" cx="1696" cy="-104" rx="66.61" ry="18"/>
<text text-anchor="middle" x="1696" y="-99.8" font-family="Times,serif" font-size="14.00">DeviseService</text>
</g>
<!-- DeviseService&#45;&gt;AppModule -->
<g id="edge17" class="edge">
<title>DeviseService&#45;&gt;AppModule</title>
<path fill="none" stroke="black" d="M1696,-122.03C1696,-138.4 1696,-160 1696,-160 1696,-160 2126.07,-160 2126.07,-160"/>
<polygon fill="black" stroke="black" points="2126.07,-163.5 2136.07,-160 2126.07,-156.5 2126.07,-163.5"/>
</g>
<!-- DisponibiliteService -->
<g id="node19" class="node">
<title>DisponibiliteService</title>
<ellipse fill="#fdb462" stroke="black" cx="1521" cy="-104" rx="90.34" ry="18"/>
<text text-anchor="middle" x="1521" y="-99.8" font-family="Times,serif" font-size="14.00">DisponibiliteService</text>
</g>
<!-- DisponibiliteService&#45;&gt;AppModule -->
<g id="edge18" class="edge">
<title>DisponibiliteService&#45;&gt;AppModule</title>
<path fill="none" stroke="black" d="M1521,-122.02C1521,-139.37 1521,-163 1521,-163 1521,-163 2126.15,-163 2126.15,-163"/>
<polygon fill="black" stroke="black" points="2126.15,-166.5 2136.15,-163 2126.15,-159.5 2126.15,-166.5"/>
</g>
<!-- PaiementNabooService -->
<g id="node20" class="node">
<title>PaiementNabooService</title>
<ellipse fill="#fdb462" stroke="black" cx="1311" cy="-104" rx="101.84" ry="18"/>
<text text-anchor="middle" x="1311" y="-99.8" font-family="Times,serif" font-size="14.00">PaiementNabooService</text>
</g>
<!-- PaiementNabooService&#45;&gt;AppModule -->
<g id="edge19" class="edge">
<title>PaiementNabooService&#45;&gt;AppModule</title>
<path fill="none" stroke="black" d="M1311,-122.3C1311,-140.27 1311,-165 1311,-165 1311,-165 2126.18,-165 2126.18,-165"/>
<polygon fill="black" stroke="black" points="2126.18,-168.5 2136.18,-165 2126.18,-161.5 2126.18,-168.5"/>
</g>
<!-- PaiementService -->
<g id="node21" class="node">
<title>PaiementService</title>
<ellipse fill="#fdb462" stroke="black" cx="1115" cy="-104" rx="75.86" ry="18"/>
<text text-anchor="middle" x="1115" y="-99.8" font-family="Times,serif" font-size="14.00">PaiementService</text>
</g>
<!-- PaiementService&#45;&gt;AppModule -->
<g id="edge20" class="edge">
<title>PaiementService&#45;&gt;AppModule</title>
<path fill="none" stroke="black" d="M1115,-122.17C1115,-141.09 1115,-168 1115,-168 1115,-168 2126.33,-168 2126.33,-168"/>
<polygon fill="black" stroke="black" points="2126.33,-171.5 2136.33,-168 2126.33,-164.5 2126.33,-171.5"/>
</g>
<!-- PrismaService -->
<g id="node22" class="node">
<title>PrismaService</title>
<ellipse fill="#fdb462" stroke="black" cx="954" cy="-104" rx="66.63" ry="18"/>
<text text-anchor="middle" x="954" y="-99.8" font-family="Times,serif" font-size="14.00">PrismaService</text>
</g>
<!-- PrismaService&#45;&gt;AppModule -->
<g id="edge21" class="edge">
<title>PrismaService&#45;&gt;AppModule</title>
<path fill="none" stroke="black" d="M954,-122.31C954,-142.15 954,-171 954,-171 954,-171 2126.22,-171 2126.22,-171"/>
<polygon fill="black" stroke="black" points="2126.22,-174.5 2136.22,-171 2126.22,-167.5 2126.22,-174.5"/>
</g>
<!-- ServiceService -->
<g id="node23" class="node">
<title>ServiceService</title>
<ellipse fill="#fdb462" stroke="black" cx="800" cy="-104" rx="68.89" ry="18"/>
<text text-anchor="middle" x="800" y="-99.8" font-family="Times,serif" font-size="14.00">ServiceService</text>
</g>
<!-- ServiceService&#45;&gt;AppModule -->
<g id="edge22" class="edge">
<title>ServiceService&#45;&gt;AppModule</title>
<path fill="none" stroke="black" d="M800,-122.03C800,-142.77 800,-174 800,-174 800,-174 2126.01,-174 2126.01,-174"/>
<polygon fill="black" stroke="black" points="2126.01,-177.5 2136.01,-174 2126.01,-170.5 2126.01,-177.5"/>
</g>
<!-- StatutReservationService -->
<g id="node24" class="node">
<title>StatutReservationService</title>
<ellipse fill="#fdb462" stroke="black" cx="604" cy="-104" rx="108.8" ry="18"/>
<text text-anchor="middle" x="604" y="-99.8" font-family="Times,serif" font-size="14.00">StatutReservationService</text>
</g>
<!-- StatutReservationService&#45;&gt;AppModule -->
<g id="edge23" class="edge">
<title>StatutReservationService&#45;&gt;AppModule</title>
<path fill="none" stroke="black" d="M604,-122.17C604,-143.5 604,-176 604,-176 604,-176 2126.3,-176 2126.3,-176"/>
<polygon fill="black" stroke="black" points="2126.3,-179.5 2136.3,-176 2126.3,-172.5 2126.3,-179.5"/>
</g>
<!-- TarifService -->
<g id="node25" class="node">
<title>TarifService</title>
<ellipse fill="#fdb462" stroke="black" cx="418" cy="-104" rx="59.08" ry="18"/>
<text text-anchor="middle" x="418" y="-99.8" font-family="Times,serif" font-size="14.00">TarifService</text>
</g>
<!-- TarifService&#45;&gt;AppModule -->
<g id="edge24" class="edge">
<title>TarifService&#45;&gt;AppModule</title>
<path fill="none" stroke="black" d="M418,-122.16C418,-144.35 418,-179 418,-179 418,-179 2126.23,-179 2126.23,-179"/>
<polygon fill="black" stroke="black" points="2126.23,-182.5 2136.23,-179 2126.23,-175.5 2126.23,-182.5"/>
</g>
<!-- UploadService -->
<g id="node26" class="node">
<title>UploadService</title>
<ellipse fill="#fdb462" stroke="black" cx="272" cy="-104" rx="68.34" ry="18"/>
<text text-anchor="middle" x="272" y="-99.8" font-family="Times,serif" font-size="14.00">UploadService</text>
</g>
<!-- UploadService&#45;&gt;AppModule -->
<g id="edge25" class="edge">
<title>UploadService&#45;&gt;AppModule</title>
<path fill="none" stroke="black" d="M272,-122.09C272,-145.13 272,-182 272,-182 272,-182 2125.97,-182 2125.97,-182"/>
<polygon fill="black" stroke="black" points="2125.97,-185.5 2135.97,-182 2125.97,-178.5 2125.97,-185.5"/>
</g>
<!-- ValidationService -->
<g id="node27" class="node">
<title>ValidationService</title>
<ellipse fill="#fdb462" stroke="black" cx="105" cy="-104" rx="80.51" ry="18"/>
<text text-anchor="middle" x="105" y="-99.8" font-family="Times,serif" font-size="14.00">ValidationService</text>
</g>
<!-- ValidationService&#45;&gt;AppModule -->
<g id="edge26" class="edge">
<title>ValidationService&#45;&gt;AppModule</title>
<path fill="none" stroke="black" d="M105,-122.38C105,-146.28 105,-185 105,-185 105,-185 2126.12,-185 2126.12,-185"/>
<polygon fill="black" stroke="black" points="2126.12,-188.5 2136.12,-185 2126.12,-181.5 2126.12,-188.5"/>
</g>
</g>
</svg>
