<?xml version="1.0" encoding="UTF-8" standalone="no"?>
<!DOCTYPE svg PUBLIC "-//W3C//DTD SVG 1.1//EN"
 "http://www.w3.org/Graphics/SVG/1.1/DTD/svg11.dtd">
<!-- Generated by graphviz version 2.47.0 (20210316.0004)
 -->
<!-- Title: dependencies Pages: 1 -->
<svg width="3437pt" height="211pt"
 viewBox="0.00 0.00 3437.00 211.00" xmlns="http://www.w3.org/2000/svg" xmlns:xlink="http://www.w3.org/1999/xlink">
<g id="graph0" class="graph" transform="scale(1 1) rotate(0) translate(4 207)">
<title>dependencies</title>
<polygon fill="white" stroke="transparent" points="-4,4 -4,-207 3433,-207 3433,4 -4,4"/>
<text text-anchor="start" x="1693.51" y="-42.4" font-family="Times-12" font-weight="bold" font-size="14.00">Legend</text>
<polygon fill="#ffffb3" stroke="transparent" points="1480.5,-10 1480.5,-30 1500.5,-30 1500.5,-10 1480.5,-10"/>
<text text-anchor="start" x="1504.13" y="-15.4" font-family="Times-12" font-size="14.00"> &#160;Declarations</text>
<polygon fill="#8dd3c7" stroke="transparent" points="1593.5,-10 1593.5,-30 1613.5,-30 1613.5,-10 1593.5,-10"/>
<text text-anchor="start" x="1617.23" y="-15.4" font-family="Times-12" font-size="14.00"> &#160;Module</text>
<polygon fill="#80b1d3" stroke="transparent" points="1679.5,-10 1679.5,-30 1699.5,-30 1699.5,-10 1679.5,-10"/>
<text text-anchor="start" x="1703.28" y="-15.4" font-family="Times-12" font-size="14.00"> &#160;Bootstrap</text>
<polygon fill="#fdb462" stroke="transparent" points="1776.5,-10 1776.5,-30 1796.5,-30 1796.5,-10 1776.5,-10"/>
<text text-anchor="start" x="1800.17" y="-15.4" font-family="Times-12" font-size="14.00"> &#160;Providers</text>
<polygon fill="#fb8072" stroke="transparent" points="1872.5,-10 1872.5,-30 1892.5,-30 1892.5,-10 1872.5,-10"/>
<text text-anchor="start" x="1896.23" y="-15.4" font-family="Times-12" font-size="14.00"> &#160;Exports</text>
<g id="clust1" class="cluster">
<title>cluster_AppModule</title>
<polygon fill="none" stroke="black" stroke-dasharray="1,5" points="8,-70 8,-195 3421,-195 3421,-70 8,-70"/>
</g>
<g id="clust3" class="cluster">
<title>cluster_AppModule_imports</title>
<polygon fill="none" stroke="black" points="1518,-78 1518,-130 3413,-130 3413,-78 1518,-78"/>
</g>
<g id="clust6" class="cluster">
<title>cluster_AppModule_providers</title>
<polygon fill="none" stroke="black" points="16,-78 16,-130 1510,-130 1510,-78 16,-78"/>
</g>
<!-- AuthModule -->
<g id="node1" class="node">
<title>AuthModule</title>
<polygon fill="#8dd3c7" stroke="black" points="3404.55,-122 3401.55,-126 3380.55,-126 3377.55,-122 3317.45,-122 3317.45,-86 3404.55,-86 3404.55,-122"/>
<text text-anchor="middle" x="3361" y="-99.8" font-family="Times,serif" font-size="14.00">AuthModule</text>
</g>
<!-- AppModule -->
<g id="node15" class="node">
<title>AppModule</title>
<polygon fill="#8dd3c7" stroke="black" points="1891.66,-187 1888.66,-191 1867.66,-191 1864.66,-187 1808.34,-187 1808.34,-151 1891.66,-151 1891.66,-187"/>
<text text-anchor="middle" x="1850" y="-164.8" font-family="Times,serif" font-size="14.00">AppModule</text>
</g>
<!-- AuthModule&#45;&gt;AppModule -->
<g id="edge1" class="edge">
<title>AuthModule&#45;&gt;AppModule</title>
<path fill="none" stroke="black" d="M3361,-122.15C3361,-145.76 3361,-184 3361,-184 3361,-184 1901.99,-184 1901.99,-184"/>
<polygon fill="black" stroke="black" points="1901.99,-180.5 1891.99,-184 1901.99,-187.5 1901.99,-180.5"/>
</g>
<!-- DisponibiliteModule -->
<g id="node2" class="node">
<title>DisponibiliteModule</title>
<polygon fill="#8dd3c7" stroke="black" points="3299.16,-122 3296.16,-126 3275.16,-126 3272.16,-122 3166.84,-122 3166.84,-86 3299.16,-86 3299.16,-122"/>
<text text-anchor="middle" x="3233" y="-99.8" font-family="Times,serif" font-size="14.00">DisponibiliteModule</text>
</g>
<!-- DisponibiliteModule&#45;&gt;AppModule -->
<g id="edge2" class="edge">
<title>DisponibiliteModule&#45;&gt;AppModule</title>
<path fill="none" stroke="black" d="M3233,-122.09C3233,-145.13 3233,-182 3233,-182 3233,-182 1901.77,-182 1901.77,-182"/>
<polygon fill="black" stroke="black" points="1901.77,-178.5 1891.77,-182 1901.77,-185.5 1901.77,-178.5"/>
</g>
<!-- LogModule -->
<g id="node3" class="node">
<title>LogModule</title>
<polygon fill="#8dd3c7" stroke="black" points="3149.1,-122 3146.1,-126 3125.1,-126 3122.1,-122 3066.9,-122 3066.9,-86 3149.1,-86 3149.1,-122"/>
<text text-anchor="middle" x="3108" y="-99.8" font-family="Times,serif" font-size="14.00">LogModule</text>
</g>
<!-- LogModule&#45;&gt;AppModule -->
<g id="edge3" class="edge">
<title>LogModule&#45;&gt;AppModule</title>
<path fill="none" stroke="black" d="M3108,-122.29C3108,-144.21 3108,-178 3108,-178 3108,-178 1901.86,-178 1901.86,-178"/>
<polygon fill="black" stroke="black" points="1901.86,-174.5 1891.86,-178 1901.86,-181.5 1901.86,-174.5"/>
</g>
<!-- MedecinSousserviceModule -->
<g id="node4" class="node">
<title>MedecinSousserviceModule</title>
<polygon fill="#8dd3c7" stroke="black" points="3048.9,-122 3045.9,-126 3024.9,-126 3021.9,-122 2873.1,-122 2873.1,-86 3048.9,-86 3048.9,-122"/>
<text text-anchor="middle" x="2961" y="-99.8" font-family="Times,serif" font-size="14.00">MedecinSousserviceModule</text>
</g>
<!-- MedecinSousserviceModule&#45;&gt;AppModule -->
<g id="edge4" class="edge">
<title>MedecinSousserviceModule&#45;&gt;AppModule</title>
<path fill="none" stroke="black" d="M2961,-122.28C2961,-143.32 2961,-175 2961,-175 2961,-175 1901.86,-175 1901.86,-175"/>
<polygon fill="black" stroke="black" points="1901.86,-171.5 1891.86,-175 1901.86,-178.5 1901.86,-171.5"/>
</g>
<!-- ModePaiementModule -->
<g id="node5" class="node">
<title>ModePaiementModule</title>
<polygon fill="#8dd3c7" stroke="black" points="2855.31,-122 2852.31,-126 2831.31,-126 2828.31,-122 2710.69,-122 2710.69,-86 2855.31,-86 2855.31,-122"/>
<text text-anchor="middle" x="2783" y="-99.8" font-family="Times,serif" font-size="14.00">ModePaiementModule</text>
</g>
<!-- ModePaiementModule&#45;&gt;AppModule -->
<g id="edge5" class="edge">
<title>ModePaiementModule&#45;&gt;AppModule</title>
<path fill="none" stroke="black" d="M2783,-122.22C2783,-142.37 2783,-172 2783,-172 2783,-172 1901.9,-172 1901.9,-172"/>
<polygon fill="black" stroke="black" points="1901.9,-168.5 1891.9,-172 1901.9,-175.5 1901.9,-168.5"/>
</g>
<!-- PrismaModule -->
<g id="node6" class="node">
<title>PrismaModule</title>
<polygon fill="#8dd3c7" stroke="black" points="2693.43,-122 2690.43,-126 2669.43,-126 2666.43,-122 2594.57,-122 2594.57,-86 2693.43,-86 2693.43,-122"/>
<text text-anchor="middle" x="2644" y="-99.8" font-family="Times,serif" font-size="14.00">PrismaModule</text>
</g>
<!-- PrismaModule&#45;&gt;AppModule -->
<g id="edge6" class="edge">
<title>PrismaModule&#45;&gt;AppModule</title>
<path fill="none" stroke="black" d="M2644,-122.11C2644,-141.34 2644,-169 2644,-169 2644,-169 1901.85,-169 1901.85,-169"/>
<polygon fill="black" stroke="black" points="1901.85,-165.5 1891.85,-169 1901.85,-172.5 1901.85,-165.5"/>
</g>
<!-- PrivilegeModule -->
<g id="node7" class="node">
<title>PrivilegeModule</title>
<polygon fill="#8dd3c7" stroke="black" points="2577.09,-122 2574.09,-126 2553.09,-126 2550.09,-122 2466.91,-122 2466.91,-86 2577.09,-86 2577.09,-122"/>
<text text-anchor="middle" x="2522" y="-99.8" font-family="Times,serif" font-size="14.00">PrivilegeModule</text>
</g>
<!-- PrivilegeModule&#45;&gt;AppModule -->
<g id="edge7" class="edge">
<title>PrivilegeModule&#45;&gt;AppModule</title>
<path fill="none" stroke="black" d="M2522,-122.22C2522,-140.83 2522,-167 2522,-167 2522,-167 1901.78,-167 1901.78,-167"/>
<polygon fill="black" stroke="black" points="1901.78,-163.5 1891.78,-167 1901.78,-170.5 1901.78,-163.5"/>
</g>
<!-- ServiceModule -->
<g id="node8" class="node">
<title>ServiceModule</title>
<polygon fill="#8dd3c7" stroke="black" points="2448.53,-122 2445.53,-126 2424.53,-126 2421.53,-122 2347.47,-122 2347.47,-86 2448.53,-86 2448.53,-122"/>
<text text-anchor="middle" x="2398" y="-99.8" font-family="Times,serif" font-size="14.00">ServiceModule</text>
</g>
<!-- ServiceModule&#45;&gt;AppModule -->
<g id="edge8" class="edge">
<title>ServiceModule&#45;&gt;AppModule</title>
<path fill="none" stroke="black" d="M2398,-122.02C2398,-139.37 2398,-163 2398,-163 2398,-163 1902.09,-163 1902.09,-163"/>
<polygon fill="black" stroke="black" points="1902.09,-159.5 1892.09,-163 1902.09,-166.5 1902.09,-159.5"/>
</g>
<!-- SousServiceModule -->
<g id="node9" class="node">
<title>SousServiceModule</title>
<polygon fill="#8dd3c7" stroke="black" points="2329.25,-122 2326.25,-126 2305.25,-126 2302.25,-122 2200.75,-122 2200.75,-86 2329.25,-86 2329.25,-122"/>
<text text-anchor="middle" x="2265" y="-99.8" font-family="Times,serif" font-size="14.00">SousServiceModule</text>
</g>
<!-- SousServiceModule&#45;&gt;AppModule -->
<g id="edge9" class="edge">
<title>SousServiceModule&#45;&gt;AppModule</title>
<path fill="none" stroke="black" d="M2265,-122.03C2265,-138.4 2265,-160 2265,-160 2265,-160 1901.69,-160 1901.69,-160"/>
<polygon fill="black" stroke="black" points="1901.69,-156.5 1891.69,-160 1901.69,-163.5 1901.69,-156.5"/>
</g>
<!-- StatutReservationModule -->
<g id="node10" class="node">
<title>StatutReservationModule</title>
<polygon fill="#8dd3c7" stroke="black" points="2182.59,-122 2179.59,-126 2158.59,-126 2155.59,-122 2023.41,-122 2023.41,-86 2182.59,-86 2182.59,-122"/>
<text text-anchor="middle" x="2103" y="-99.8" font-family="Times,serif" font-size="14.00">StatutReservationModule</text>
</g>
<!-- StatutReservationModule&#45;&gt;AppModule -->
<g id="edge10" class="edge">
<title>StatutReservationModule&#45;&gt;AppModule</title>
<path fill="none" stroke="black" d="M2103,-122.24C2103,-137.57 2103,-157 2103,-157 2103,-157 1901.78,-157 1901.78,-157"/>
<polygon fill="black" stroke="black" points="1901.78,-153.5 1891.78,-157 1901.78,-160.5 1901.78,-153.5"/>
</g>
<!-- TarifModule -->
<g id="node11" class="node">
<title>TarifModule</title>
<polygon fill="#8dd3c7" stroke="black" points="2005.53,-122 2002.53,-126 1981.53,-126 1978.53,-122 1918.47,-122 1918.47,-86 2005.53,-86 2005.53,-122"/>
<text text-anchor="middle" x="1962" y="-99.8" font-family="Times,serif" font-size="14.00">TarifModule</text>
</g>
<!-- TarifModule&#45;&gt;AppModule -->
<g id="edge11" class="edge">
<title>TarifModule&#45;&gt;AppModule</title>
<path fill="none" stroke="black" d="M1962,-122.05C1962,-136.37 1962,-154 1962,-154 1962,-154 1901.7,-154 1901.7,-154"/>
<polygon fill="black" stroke="black" points="1901.7,-150.5 1891.7,-154 1901.7,-157.5 1901.7,-150.5"/>
</g>
<!-- UploadModule -->
<g id="node12" class="node">
<title>UploadModule</title>
<polygon fill="#8dd3c7" stroke="black" points="1900.26,-122 1897.26,-126 1876.26,-126 1873.26,-122 1799.74,-122 1799.74,-86 1900.26,-86 1900.26,-122"/>
<text text-anchor="middle" x="1850" y="-99.8" font-family="Times,serif" font-size="14.00">UploadModule</text>
</g>
<!-- UploadModule&#45;&gt;AppModule -->
<g id="edge12" class="edge">
<title>UploadModule&#45;&gt;AppModule</title>
<path fill="none" stroke="black" d="M1850,-122.11C1850,-122.11 1850,-140.99 1850,-140.99"/>
<polygon fill="black" stroke="black" points="1846.5,-140.99 1850,-150.99 1853.5,-140.99 1846.5,-140.99"/>
</g>
<!-- UtilisateurModule -->
<g id="node13" class="node">
<title>UtilisateurModule</title>
<polygon fill="#8dd3c7" stroke="black" points="1781.14,-122 1778.14,-126 1757.14,-126 1754.14,-122 1662.86,-122 1662.86,-86 1781.14,-86 1781.14,-122"/>
<text text-anchor="middle" x="1722" y="-99.8" font-family="Times,serif" font-size="14.00">UtilisateurModule</text>
</g>
<!-- UtilisateurModule&#45;&gt;AppModule -->
<g id="edge13" class="edge">
<title>UtilisateurModule&#45;&gt;AppModule</title>
<path fill="none" stroke="black" d="M1722,-122.05C1722,-136.37 1722,-154 1722,-154 1722,-154 1798.09,-154 1798.09,-154"/>
<polygon fill="black" stroke="black" points="1798.09,-157.5 1808.09,-154 1798.09,-150.5 1798.09,-157.5"/>
</g>
<!-- ValidationModule -->
<g id="node14" class="node">
<title>ValidationModule</title>
<polygon fill="#8dd3c7" stroke="black" points="1644.15,-122 1641.15,-126 1620.15,-126 1617.15,-122 1525.85,-122 1525.85,-86 1644.15,-86 1644.15,-122"/>
<text text-anchor="middle" x="1585" y="-99.8" font-family="Times,serif" font-size="14.00">ValidationModule</text>
</g>
<!-- ValidationModule&#45;&gt;AppModule -->
<g id="edge14" class="edge">
<title>ValidationModule&#45;&gt;AppModule</title>
<path fill="none" stroke="black" d="M1585,-122.24C1585,-137.57 1585,-157 1585,-157 1585,-157 1798.3,-157 1798.3,-157"/>
<polygon fill="black" stroke="black" points="1798.3,-160.5 1808.3,-157 1798.3,-153.5 1798.3,-160.5"/>
</g>
<!-- AppService -->
<g id="node16" class="node">
<title>AppService</title>
<ellipse fill="#fdb462" stroke="black" cx="1445" cy="-104" rx="56.74" ry="18"/>
<text text-anchor="middle" x="1445" y="-99.8" font-family="Times,serif" font-size="14.00">AppService</text>
</g>
<!-- AppService&#45;&gt;AppModule -->
<g id="edge15" class="edge">
<title>AppService&#45;&gt;AppModule</title>
<path fill="none" stroke="black" d="M1445,-122.03C1445,-138.4 1445,-160 1445,-160 1445,-160 1798.18,-160 1798.18,-160"/>
<polygon fill="black" stroke="black" points="1798.18,-163.5 1808.18,-160 1798.18,-156.5 1798.18,-163.5"/>
</g>
<!-- DeviseService -->
<g id="node17" class="node">
<title>DeviseService</title>
<ellipse fill="#fdb462" stroke="black" cx="1304" cy="-104" rx="66.61" ry="18"/>
<text text-anchor="middle" x="1304" y="-99.8" font-family="Times,serif" font-size="14.00">DeviseService</text>
</g>
<!-- DeviseService&#45;&gt;AppModule -->
<g id="edge16" class="edge">
<title>DeviseService&#45;&gt;AppModule</title>
<path fill="none" stroke="black" d="M1304,-122.02C1304,-139.37 1304,-163 1304,-163 1304,-163 1798.06,-163 1798.06,-163"/>
<polygon fill="black" stroke="black" points="1798.06,-166.5 1808.06,-163 1798.06,-159.5 1798.06,-166.5"/>
</g>
<!-- DisponibiliteService -->
<g id="node18" class="node">
<title>DisponibiliteService</title>
<ellipse fill="#fdb462" stroke="black" cx="1129" cy="-104" rx="90.34" ry="18"/>
<text text-anchor="middle" x="1129" y="-99.8" font-family="Times,serif" font-size="14.00">DisponibiliteService</text>
</g>
<!-- DisponibiliteService&#45;&gt;AppModule -->
<g id="edge17" class="edge">
<title>DisponibiliteService&#45;&gt;AppModule</title>
<path fill="none" stroke="black" d="M1129,-122.22C1129,-140.83 1129,-167 1129,-167 1129,-167 1798.12,-167 1798.12,-167"/>
<polygon fill="black" stroke="black" points="1798.12,-170.5 1808.12,-167 1798.12,-163.5 1798.12,-170.5"/>
</g>
<!-- PrismaService -->
<g id="node19" class="node">
<title>PrismaService</title>
<ellipse fill="#fdb462" stroke="black" cx="954" cy="-104" rx="66.63" ry="18"/>
<text text-anchor="middle" x="954" y="-99.8" font-family="Times,serif" font-size="14.00">PrismaService</text>
</g>
<!-- PrismaService&#45;&gt;AppModule -->
<g id="edge18" class="edge">
<title>PrismaService&#45;&gt;AppModule</title>
<path fill="none" stroke="black" d="M954,-122.11C954,-141.34 954,-169 954,-169 954,-169 1798.28,-169 1798.28,-169"/>
<polygon fill="black" stroke="black" points="1798.28,-172.5 1808.28,-169 1798.28,-165.5 1798.28,-172.5"/>
</g>
<!-- ServiceService -->
<g id="node20" class="node">
<title>ServiceService</title>
<ellipse fill="#fdb462" stroke="black" cx="800" cy="-104" rx="68.89" ry="18"/>
<text text-anchor="middle" x="800" y="-99.8" font-family="Times,serif" font-size="14.00">ServiceService</text>
</g>
<!-- ServiceService&#45;&gt;AppModule -->
<g id="edge19" class="edge">
<title>ServiceService&#45;&gt;AppModule</title>
<path fill="none" stroke="black" d="M800,-122.22C800,-142.37 800,-172 800,-172 800,-172 1798.19,-172 1798.19,-172"/>
<polygon fill="black" stroke="black" points="1798.19,-175.5 1808.19,-172 1798.19,-168.5 1798.19,-175.5"/>
</g>
<!-- StatutReservationService -->
<g id="node21" class="node">
<title>StatutReservationService</title>
<ellipse fill="#fdb462" stroke="black" cx="604" cy="-104" rx="108.8" ry="18"/>
<text text-anchor="middle" x="604" y="-99.8" font-family="Times,serif" font-size="14.00">StatutReservationService</text>
</g>
<!-- StatutReservationService&#45;&gt;AppModule -->
<g id="edge20" class="edge">
<title>StatutReservationService&#45;&gt;AppModule</title>
<path fill="none" stroke="black" d="M604,-122.28C604,-143.32 604,-175 604,-175 604,-175 1798.19,-175 1798.19,-175"/>
<polygon fill="black" stroke="black" points="1798.19,-178.5 1808.19,-175 1798.19,-171.5 1798.19,-178.5"/>
</g>
<!-- TarifService -->
<g id="node22" class="node">
<title>TarifService</title>
<ellipse fill="#fdb462" stroke="black" cx="418" cy="-104" rx="59.08" ry="18"/>
<text text-anchor="middle" x="418" y="-99.8" font-family="Times,serif" font-size="14.00">TarifService</text>
</g>
<!-- TarifService&#45;&gt;AppModule -->
<g id="edge21" class="edge">
<title>TarifService&#45;&gt;AppModule</title>
<path fill="none" stroke="black" d="M418,-122.29C418,-144.21 418,-178 418,-178 418,-178 1798.3,-178 1798.3,-178"/>
<polygon fill="black" stroke="black" points="1798.3,-181.5 1808.3,-178 1798.3,-174.5 1798.3,-181.5"/>
</g>
<!-- UploadService -->
<g id="node23" class="node">
<title>UploadService</title>
<ellipse fill="#fdb462" stroke="black" cx="272" cy="-104" rx="68.34" ry="18"/>
<text text-anchor="middle" x="272" y="-99.8" font-family="Times,serif" font-size="14.00">UploadService</text>
</g>
<!-- UploadService&#45;&gt;AppModule -->
<g id="edge22" class="edge">
<title>UploadService&#45;&gt;AppModule</title>
<path fill="none" stroke="black" d="M272,-122.09C272,-145.13 272,-182 272,-182 272,-182 1798.2,-182 1798.2,-182"/>
<polygon fill="black" stroke="black" points="1798.2,-185.5 1808.2,-182 1798.2,-178.5 1798.2,-185.5"/>
</g>
<!-- ValidationService -->
<g id="node24" class="node">
<title>ValidationService</title>
<ellipse fill="#fdb462" stroke="black" cx="105" cy="-104" rx="80.51" ry="18"/>
<text text-anchor="middle" x="105" y="-99.8" font-family="Times,serif" font-size="14.00">ValidationService</text>
</g>
<!-- ValidationService&#45;&gt;AppModule -->
<g id="edge23" class="edge">
<title>ValidationService&#45;&gt;AppModule</title>
<path fill="none" stroke="black" d="M105,-122.15C105,-145.76 105,-184 105,-184 105,-184 1798.16,-184 1798.16,-184"/>
<polygon fill="black" stroke="black" points="1798.16,-187.5 1808.16,-184 1798.16,-180.5 1798.16,-187.5"/>
</g>
</g>
</svg>
