<?xml version="1.0" encoding="UTF-8" standalone="no"?>
<!DOCTYPE svg PUBLIC "-//W3C//DTD SVG 1.1//EN"
 "http://www.w3.org/Graphics/SVG/1.1/DTD/svg11.dtd">
<!-- Generated by graphviz version 2.47.0 (20210316.0004)
 -->
<!-- Title: dependencies Pages: 1 -->
<svg width="887pt" height="211pt"
 viewBox="0.00 0.00 887.00 211.00" xmlns="http://www.w3.org/2000/svg" xmlns:xlink="http://www.w3.org/1999/xlink">
<g id="graph0" class="graph" transform="scale(1 1) rotate(0) translate(4 207)">
<title>dependencies</title>
<polygon fill="white" stroke="transparent" points="-4,4 -4,-207 883,-207 883,4 -4,4"/>
<text text-anchor="start" x="418.51" y="-42.4" font-family="Times-12" font-weight="bold" font-size="14.00">Legend</text>
<polygon fill="#ffffb3" stroke="transparent" points="205.5,-10 205.5,-30 225.5,-30 225.5,-10 205.5,-10"/>
<text text-anchor="start" x="229.13" y="-15.4" font-family="Times-12" font-size="14.00"> &#160;Declarations</text>
<polygon fill="#8dd3c7" stroke="transparent" points="318.5,-10 318.5,-30 338.5,-30 338.5,-10 318.5,-10"/>
<text text-anchor="start" x="342.23" y="-15.4" font-family="Times-12" font-size="14.00"> &#160;Module</text>
<polygon fill="#80b1d3" stroke="transparent" points="404.5,-10 404.5,-30 424.5,-30 424.5,-10 404.5,-10"/>
<text text-anchor="start" x="428.28" y="-15.4" font-family="Times-12" font-size="14.00"> &#160;Bootstrap</text>
<polygon fill="#fdb462" stroke="transparent" points="501.5,-10 501.5,-30 521.5,-30 521.5,-10 501.5,-10"/>
<text text-anchor="start" x="525.17" y="-15.4" font-family="Times-12" font-size="14.00"> &#160;Providers</text>
<polygon fill="#fb8072" stroke="transparent" points="597.5,-10 597.5,-30 617.5,-30 617.5,-10 597.5,-10"/>
<text text-anchor="start" x="621.23" y="-15.4" font-family="Times-12" font-size="14.00"> &#160;Exports</text>
<g id="clust1" class="cluster">
<title>cluster_AppModule</title>
<polygon fill="none" stroke="black" stroke-dasharray="1,5" points="8,-70 8,-195 871,-195 871,-70 8,-70"/>
</g>
<g id="clust3" class="cluster">
<title>cluster_AppModule_imports</title>
<polygon fill="none" stroke="black" points="485,-78 485,-130 863,-130 863,-78 485,-78"/>
</g>
<g id="clust6" class="cluster">
<title>cluster_AppModule_providers</title>
<polygon fill="none" stroke="black" points="16,-78 16,-130 477,-130 477,-78 16,-78"/>
</g>
<!-- PrismaModule -->
<g id="node1" class="node">
<title>PrismaModule</title>
<polygon fill="#8dd3c7" stroke="black" points="855.43,-122 852.43,-126 831.43,-126 828.43,-122 756.57,-122 756.57,-86 855.43,-86 855.43,-122"/>
<text text-anchor="middle" x="806" y="-99.8" font-family="Times,serif" font-size="14.00">PrismaModule</text>
</g>
<!-- AppModule -->
<g id="node4" class="node">
<title>AppModule</title>
<polygon fill="#8dd3c7" stroke="black" points="523.66,-187 520.66,-191 499.66,-191 496.66,-187 440.34,-187 440.34,-151 523.66,-151 523.66,-187"/>
<text text-anchor="middle" x="482" y="-164.8" font-family="Times,serif" font-size="14.00">AppModule</text>
</g>
<!-- PrismaModule&#45;&gt;AppModule -->
<g id="edge1" class="edge">
<title>PrismaModule&#45;&gt;AppModule</title>
<path fill="none" stroke="black" d="M806,-122.28C806,-143.32 806,-175 806,-175 806,-175 533.69,-175 533.69,-175"/>
<polygon fill="black" stroke="black" points="533.69,-171.5 523.69,-175 533.69,-178.5 533.69,-171.5"/>
</g>
<!-- PrivilegeModule -->
<g id="node2" class="node">
<title>PrivilegeModule</title>
<polygon fill="#8dd3c7" stroke="black" points="739.09,-122 736.09,-126 715.09,-126 712.09,-122 628.91,-122 628.91,-86 739.09,-86 739.09,-122"/>
<text text-anchor="middle" x="684" y="-99.8" font-family="Times,serif" font-size="14.00">PrivilegeModule</text>
</g>
<!-- PrivilegeModule&#45;&gt;AppModule -->
<g id="edge2" class="edge">
<title>PrivilegeModule&#45;&gt;AppModule</title>
<path fill="none" stroke="black" d="M684,-122.02C684,-139.37 684,-163 684,-163 684,-163 533.85,-163 533.85,-163"/>
<polygon fill="black" stroke="black" points="533.85,-159.5 523.85,-163 533.85,-166.5 533.85,-159.5"/>
</g>
<!-- ValidationModule -->
<g id="node3" class="node">
<title>ValidationModule</title>
<polygon fill="#8dd3c7" stroke="black" points="611.15,-122 608.15,-126 587.15,-126 584.15,-122 492.85,-122 492.85,-86 611.15,-86 611.15,-122"/>
<text text-anchor="middle" x="552" y="-99.8" font-family="Times,serif" font-size="14.00">ValidationModule</text>
</g>
<!-- ValidationModule&#45;&gt;AppModule -->
<g id="edge3" class="edge">
<title>ValidationModule&#45;&gt;AppModule</title>
<path fill="none" stroke="black" d="M508.25,-122.11C508.25,-122.11 508.25,-140.99 508.25,-140.99"/>
<polygon fill="black" stroke="black" points="504.75,-140.99 508.25,-150.99 511.75,-140.99 504.75,-140.99"/>
</g>
<!-- AppService -->
<g id="node5" class="node">
<title>AppService</title>
<ellipse fill="#fdb462" stroke="black" cx="412" cy="-104" rx="56.74" ry="18"/>
<text text-anchor="middle" x="412" y="-99.8" font-family="Times,serif" font-size="14.00">AppService</text>
</g>
<!-- AppService&#45;&gt;AppModule -->
<g id="edge4" class="edge">
<title>AppService&#45;&gt;AppModule</title>
<path fill="none" stroke="black" d="M454.4,-116.23C454.4,-116.23 454.4,-140.68 454.4,-140.68"/>
<polygon fill="black" stroke="black" points="450.9,-140.68 454.4,-150.68 457.9,-140.68 450.9,-140.68"/>
</g>
<!-- PrismaService -->
<g id="node6" class="node">
<title>PrismaService</title>
<ellipse fill="#fdb462" stroke="black" cx="271" cy="-104" rx="66.63" ry="18"/>
<text text-anchor="middle" x="271" y="-99.8" font-family="Times,serif" font-size="14.00">PrismaService</text>
</g>
<!-- PrismaService&#45;&gt;AppModule -->
<g id="edge5" class="edge">
<title>PrismaService&#45;&gt;AppModule</title>
<path fill="none" stroke="black" d="M271,-122.02C271,-139.37 271,-163 271,-163 271,-163 430.31,-163 430.31,-163"/>
<polygon fill="black" stroke="black" points="430.31,-166.5 440.31,-163 430.31,-159.5 430.31,-166.5"/>
</g>
<!-- ValidationService -->
<g id="node7" class="node">
<title>ValidationService</title>
<ellipse fill="#fdb462" stroke="black" cx="105" cy="-104" rx="80.51" ry="18"/>
<text text-anchor="middle" x="105" y="-99.8" font-family="Times,serif" font-size="14.00">ValidationService</text>
</g>
<!-- ValidationService&#45;&gt;AppModule -->
<g id="edge6" class="edge">
<title>ValidationService&#45;&gt;AppModule</title>
<path fill="none" stroke="black" d="M105,-122.28C105,-143.32 105,-175 105,-175 105,-175 430.21,-175 430.21,-175"/>
<polygon fill="black" stroke="black" points="430.21,-178.5 440.21,-175 430.21,-171.5 430.21,-178.5"/>
</g>
</g>
</svg>
