<?xml version="1.0" encoding="UTF-8" standalone="no"?>
<!DOCTYPE svg PUBLIC "-//W3C//DTD SVG 1.1//EN"
 "http://www.w3.org/Graphics/SVG/1.1/DTD/svg11.dtd">
<!-- Generated by graphviz version 2.47.0 (20210316.0004)
 -->
<!-- Title: dependencies Pages: 1 -->
<svg width="504pt" height="211pt"
 viewBox="0.00 0.00 504.00 211.00" xmlns="http://www.w3.org/2000/svg" xmlns:xlink="http://www.w3.org/1999/xlink">
<g id="graph0" class="graph" transform="scale(1 1) rotate(0) translate(4 207)">
<title>dependencies</title>
<polygon fill="white" stroke="transparent" points="-4,4 -4,-207 500,-207 500,4 -4,4"/>
<text text-anchor="start" x="227.01" y="-42.4" font-family="Times-12" font-weight="bold" font-size="14.00">Legend</text>
<polygon fill="#ffffb3" stroke="transparent" points="14,-10 14,-30 34,-30 34,-10 14,-10"/>
<text text-anchor="start" x="37.63" y="-15.4" font-family="Times-12" font-size="14.00"> &#160;Declarations</text>
<polygon fill="#8dd3c7" stroke="transparent" points="127,-10 127,-30 147,-30 147,-10 127,-10"/>
<text text-anchor="start" x="150.73" y="-15.4" font-family="Times-12" font-size="14.00"> &#160;Module</text>
<polygon fill="#80b1d3" stroke="transparent" points="213,-10 213,-30 233,-30 233,-10 213,-10"/>
<text text-anchor="start" x="236.78" y="-15.4" font-family="Times-12" font-size="14.00"> &#160;Bootstrap</text>
<polygon fill="#fdb462" stroke="transparent" points="310,-10 310,-30 330,-30 330,-10 310,-10"/>
<text text-anchor="start" x="333.67" y="-15.4" font-family="Times-12" font-size="14.00"> &#160;Providers</text>
<polygon fill="#fb8072" stroke="transparent" points="406,-10 406,-30 426,-30 426,-10 406,-10"/>
<text text-anchor="start" x="429.73" y="-15.4" font-family="Times-12" font-size="14.00"> &#160;Exports</text>
<g id="clust1" class="cluster">
<title>cluster_DisponibiliteModule</title>
<polygon fill="none" stroke="black" stroke-dasharray="1,5" points="56,-70 56,-195 440,-195 440,-70 56,-70"/>
</g>
<g id="clust6" class="cluster">
<title>cluster_DisponibiliteModule_providers</title>
<polygon fill="none" stroke="black" points="64,-78 64,-130 432,-130 432,-78 64,-78"/>
</g>
<!-- DisponibiliteService -->
<g id="node1" class="node">
<title>DisponibiliteService</title>
<ellipse fill="#fdb462" stroke="black" cx="334" cy="-104" rx="90.34" ry="18"/>
<text text-anchor="middle" x="334" y="-99.8" font-family="Times,serif" font-size="14.00">DisponibiliteService</text>
</g>
<!-- DisponibiliteModule -->
<g id="node3" class="node">
<title>DisponibiliteModule</title>
<polygon fill="#8dd3c7" stroke="black" points="307.16,-187 304.16,-191 283.16,-191 280.16,-187 174.84,-187 174.84,-151 307.16,-151 307.16,-187"/>
<text text-anchor="middle" x="241" y="-164.8" font-family="Times,serif" font-size="14.00">DisponibiliteModule</text>
</g>
<!-- DisponibiliteService&#45;&gt;DisponibiliteModule -->
<g id="edge1" class="edge">
<title>DisponibiliteService&#45;&gt;DisponibiliteModule</title>
<path fill="none" stroke="black" d="M275.45,-117.78C275.45,-117.78 275.45,-140.55 275.45,-140.55"/>
<polygon fill="black" stroke="black" points="271.95,-140.55 275.45,-150.55 278.95,-140.55 271.95,-140.55"/>
</g>
<!-- ResponseService -->
<g id="node2" class="node">
<title>ResponseService</title>
<ellipse fill="#fdb462" stroke="black" cx="149" cy="-104" rx="77" ry="18"/>
<text text-anchor="middle" x="149" y="-99.8" font-family="Times,serif" font-size="14.00">ResponseService</text>
</g>
<!-- ResponseService&#45;&gt;DisponibiliteModule -->
<g id="edge2" class="edge">
<title>ResponseService&#45;&gt;DisponibiliteModule</title>
<path fill="none" stroke="black" d="M200.34,-117.47C200.34,-117.47 200.34,-140.86 200.34,-140.86"/>
<polygon fill="black" stroke="black" points="196.84,-140.86 200.34,-150.86 203.84,-140.86 196.84,-140.86"/>
</g>
</g>
</svg>
