<?xml version="1.0" encoding="UTF-8" standalone="no"?>
<!DOCTYPE svg PUBLIC "-//W3C//DTD SVG 1.1//EN"
 "http://www.w3.org/Graphics/SVG/1.1/DTD/svg11.dtd">
<!-- Generated by graphviz version 2.47.0 (20210316.0004)
 -->
<!-- Title: dependencies Pages: 1 -->
<svg width="904pt" height="211pt"
 viewBox="0.00 0.00 904.00 211.00" xmlns="http://www.w3.org/2000/svg" xmlns:xlink="http://www.w3.org/1999/xlink">
<g id="graph0" class="graph" transform="scale(1 1) rotate(0) translate(4 207)">
<title>dependencies</title>
<polygon fill="white" stroke="transparent" points="-4,4 -4,-207 900,-207 900,4 -4,4"/>
<text text-anchor="start" x="427.01" y="-42.4" font-family="Times-12" font-weight="bold" font-size="14.00">Legend</text>
<polygon fill="#ffffb3" stroke="transparent" points="214,-10 214,-30 234,-30 234,-10 214,-10"/>
<text text-anchor="start" x="237.63" y="-15.4" font-family="Times-12" font-size="14.00"> &#160;Declarations</text>
<polygon fill="#8dd3c7" stroke="transparent" points="327,-10 327,-30 347,-30 347,-10 327,-10"/>
<text text-anchor="start" x="350.73" y="-15.4" font-family="Times-12" font-size="14.00"> &#160;Module</text>
<polygon fill="#80b1d3" stroke="transparent" points="413,-10 413,-30 433,-30 433,-10 413,-10"/>
<text text-anchor="start" x="436.78" y="-15.4" font-family="Times-12" font-size="14.00"> &#160;Bootstrap</text>
<polygon fill="#fdb462" stroke="transparent" points="510,-10 510,-30 530,-30 530,-10 510,-10"/>
<text text-anchor="start" x="533.67" y="-15.4" font-family="Times-12" font-size="14.00"> &#160;Providers</text>
<polygon fill="#fb8072" stroke="transparent" points="606,-10 606,-30 626,-30 626,-10 606,-10"/>
<text text-anchor="start" x="629.73" y="-15.4" font-family="Times-12" font-size="14.00"> &#160;Exports</text>
<g id="clust1" class="cluster">
<title>cluster_PaiementModule</title>
<polygon fill="none" stroke="black" stroke-dasharray="1,5" points="8,-70 8,-195 888,-195 888,-70 8,-70"/>
</g>
<g id="clust6" class="cluster">
<title>cluster_PaiementModule_providers</title>
<polygon fill="none" stroke="black" points="166,-78 166,-130 880,-130 880,-78 166,-78"/>
</g>
<g id="clust3" class="cluster">
<title>cluster_PaiementModule_imports</title>
<polygon fill="none" stroke="black" points="16,-78 16,-130 158,-130 158,-78 16,-78"/>
</g>
<!-- ReservationModule -->
<g id="node1" class="node">
<title>ReservationModule</title>
<polygon fill="#8dd3c7" stroke="black" points="150.42,-122 147.42,-126 126.42,-126 123.42,-122 23.58,-122 23.58,-86 150.42,-86 150.42,-122"/>
<text text-anchor="middle" x="87" y="-99.8" font-family="Times,serif" font-size="14.00">ReservationModule</text>
</g>
<!-- PaiementModule -->
<g id="node2" class="node">
<title>PaiementModule</title>
<polygon fill="#8dd3c7" stroke="black" points="468.65,-187 465.65,-191 444.65,-191 441.65,-187 357.35,-187 357.35,-151 468.65,-151 468.65,-187"/>
<text text-anchor="middle" x="413" y="-164.8" font-family="Times,serif" font-size="14.00">PaiementModule</text>
</g>
<!-- ReservationModule&#45;&gt;PaiementModule -->
<g id="edge1" class="edge">
<title>ReservationModule&#45;&gt;PaiementModule</title>
<path fill="none" stroke="black" d="M87,-122.28C87,-143.32 87,-175 87,-175 87,-175 347.33,-175 347.33,-175"/>
<polygon fill="black" stroke="black" points="347.33,-178.5 357.33,-175 347.33,-171.5 347.33,-178.5"/>
</g>
<!-- PaiementNabooService -->
<g id="node3" class="node">
<title>PaiementNabooService</title>
<ellipse fill="#fdb462" stroke="black" cx="770" cy="-104" rx="101.84" ry="18"/>
<text text-anchor="middle" x="770" y="-99.8" font-family="Times,serif" font-size="14.00">PaiementNabooService</text>
</g>
<!-- PaiementNabooService&#45;&gt;PaiementModule -->
<g id="edge2" class="edge">
<title>PaiementNabooService&#45;&gt;PaiementModule</title>
<path fill="none" stroke="black" d="M770,-122.28C770,-143.32 770,-175 770,-175 770,-175 478.78,-175 478.78,-175"/>
<polygon fill="black" stroke="black" points="478.78,-171.5 468.78,-175 478.78,-178.5 478.78,-171.5"/>
</g>
<!-- PaiementService -->
<g id="node4" class="node">
<title>PaiementService</title>
<ellipse fill="#fdb462" stroke="black" cx="574" cy="-104" rx="75.86" ry="18"/>
<text text-anchor="middle" x="574" y="-99.8" font-family="Times,serif" font-size="14.00">PaiementService</text>
</g>
<!-- PaiementService&#45;&gt;PaiementModule -->
<g id="edge3" class="edge">
<title>PaiementService&#45;&gt;PaiementModule</title>
<path fill="none" stroke="black" d="M574,-122.02C574,-139.37 574,-163 574,-163 574,-163 478.86,-163 478.86,-163"/>
<polygon fill="black" stroke="black" points="478.86,-159.5 468.86,-163 478.86,-166.5 478.86,-159.5"/>
</g>
<!-- PrismaService -->
<g id="node5" class="node">
<title>PrismaService</title>
<ellipse fill="#fdb462" stroke="black" cx="413" cy="-104" rx="66.63" ry="18"/>
<text text-anchor="middle" x="413" y="-99.8" font-family="Times,serif" font-size="14.00">PrismaService</text>
</g>
<!-- PrismaService&#45;&gt;PaiementModule -->
<g id="edge4" class="edge">
<title>PrismaService&#45;&gt;PaiementModule</title>
<path fill="none" stroke="black" d="M413,-122.11C413,-122.11 413,-140.99 413,-140.99"/>
<polygon fill="black" stroke="black" points="409.5,-140.99 413,-150.99 416.5,-140.99 409.5,-140.99"/>
</g>
<!-- ResponseService -->
<g id="node6" class="node">
<title>ResponseService</title>
<ellipse fill="#fdb462" stroke="black" cx="251" cy="-104" rx="77" ry="18"/>
<text text-anchor="middle" x="251" y="-99.8" font-family="Times,serif" font-size="14.00">ResponseService</text>
</g>
<!-- ResponseService&#45;&gt;PaiementModule -->
<g id="edge5" class="edge">
<title>ResponseService&#45;&gt;PaiementModule</title>
<path fill="none" stroke="black" d="M251,-122.02C251,-139.37 251,-163 251,-163 251,-163 347.25,-163 347.25,-163"/>
<polygon fill="black" stroke="black" points="347.25,-166.5 357.25,-163 347.25,-159.5 347.25,-166.5"/>
</g>
</g>
</svg>
