<?xml version="1.0" encoding="UTF-8" standalone="no"?>
<!DOCTYPE svg PUBLIC "-//W3C//DTD SVG 1.1//EN"
 "http://www.w3.org/Graphics/SVG/1.1/DTD/svg11.dtd">
<!-- Generated by graphviz version 2.47.0 (20210316.0004)
 -->
<!-- Title: dependencies Pages: 1 -->
<svg width="1425pt" height="290pt"
 viewBox="0.00 0.00 1425.00 290.00" xmlns="http://www.w3.org/2000/svg" xmlns:xlink="http://www.w3.org/1999/xlink">
<g id="graph0" class="graph" transform="scale(1 1) rotate(0) translate(4 286)">
<title>dependencies</title>
<polygon fill="white" stroke="transparent" points="-4,4 -4,-286 1421,-286 1421,4 -4,4"/>
<text text-anchor="start" x="687.51" y="-42.4" font-family="Times-12" font-weight="bold" font-size="14.00">Legend</text>
<polygon fill="#ffffb3" stroke="transparent" points="474.5,-10 474.5,-30 494.5,-30 494.5,-10 474.5,-10"/>
<text text-anchor="start" x="498.13" y="-15.4" font-family="Times-12" font-size="14.00"> &#160;Declarations</text>
<polygon fill="#8dd3c7" stroke="transparent" points="587.5,-10 587.5,-30 607.5,-30 607.5,-10 587.5,-10"/>
<text text-anchor="start" x="611.23" y="-15.4" font-family="Times-12" font-size="14.00"> &#160;Module</text>
<polygon fill="#80b1d3" stroke="transparent" points="673.5,-10 673.5,-30 693.5,-30 693.5,-10 673.5,-10"/>
<text text-anchor="start" x="697.28" y="-15.4" font-family="Times-12" font-size="14.00"> &#160;Bootstrap</text>
<polygon fill="#fdb462" stroke="transparent" points="770.5,-10 770.5,-30 790.5,-30 790.5,-10 770.5,-10"/>
<text text-anchor="start" x="794.17" y="-15.4" font-family="Times-12" font-size="14.00"> &#160;Providers</text>
<polygon fill="#fb8072" stroke="transparent" points="866.5,-10 866.5,-30 886.5,-30 886.5,-10 866.5,-10"/>
<text text-anchor="start" x="890.23" y="-15.4" font-family="Times-12" font-size="14.00"> &#160;Exports</text>
<g id="clust1" class="cluster">
<title>cluster_AppModule</title>
<polygon fill="none" stroke="black" stroke-dasharray="1,5" points="8,-70 8,-266 485,-266 485,-70 8,-70"/>
</g>
<g id="clust3" class="cluster">
<title>cluster_AppModule_imports</title>
<polygon fill="none" stroke="black" points="99,-146 99,-198 477,-198 477,-146 99,-146"/>
</g>
<g id="clust6" class="cluster">
<title>cluster_AppModule_providers</title>
<polygon fill="none" stroke="black" points="16,-78 16,-130 477,-130 477,-78 16,-78"/>
</g>
<g id="clust7" class="cluster">
<title>cluster_PrismaModule</title>
<polygon fill="none" stroke="black" stroke-dasharray="1,5" points="493,-206 493,-274 625,-274 625,-206 493,-206"/>
</g>
<g id="clust10" class="cluster">
<title>cluster_PrismaModule_exports</title>
<polygon fill="none" stroke="black" points="501,-214 501,-266 617,-266 617,-214 501,-214"/>
</g>
<g id="clust13" class="cluster">
<title>cluster_PrivilegeModule</title>
<polygon fill="none" stroke="black" stroke-dasharray="1,5" points="493,-70 493,-138 675,-138 675,-70 493,-70"/>
</g>
<g id="clust18" class="cluster">
<title>cluster_PrivilegeModule_providers</title>
<polygon fill="none" stroke="black" points="501,-78 501,-130 667,-130 667,-78 501,-78"/>
</g>
<g id="clust19" class="cluster">
<title>cluster_ValidationModule</title>
<polygon fill="none" stroke="black" stroke-dasharray="1,5" points="633,-206 633,-274 1409,-274 1409,-206 633,-206"/>
</g>
<g id="clust22" class="cluster">
<title>cluster_ValidationModule_exports</title>
<polygon fill="none" stroke="black" points="995,-214 995,-266 1401,-266 1401,-214 995,-214"/>
</g>
<g id="clust24" class="cluster">
<title>cluster_ValidationModule_providers</title>
<polygon fill="none" stroke="black" points="641,-214 641,-266 987,-266 987,-214 641,-214"/>
</g>
<!-- PrismaModule -->
<g id="node1" class="node">
<title>PrismaModule</title>
<polygon fill="#8dd3c7" stroke="black" points="205.43,-190 202.43,-194 181.43,-194 178.43,-190 106.57,-190 106.57,-154 205.43,-154 205.43,-190"/>
<text text-anchor="middle" x="156" y="-167.8" font-family="Times,serif" font-size="14.00">PrismaModule</text>
</g>
<!-- AppModule -->
<g id="node4" class="node">
<title>AppModule</title>
<polygon fill="#8dd3c7" stroke="black" points="163.66,-258 160.66,-262 139.66,-262 136.66,-258 80.34,-258 80.34,-222 163.66,-222 163.66,-258"/>
<text text-anchor="middle" x="122" y="-235.8" font-family="Times,serif" font-size="14.00">AppModule</text>
</g>
<!-- PrismaModule&#45;&gt;AppModule -->
<g id="edge1" class="edge">
<title>PrismaModule&#45;&gt;AppModule</title>
<path fill="none" stroke="black" d="M135.31,-190.22C135.31,-190.22 135.31,-211.73 135.31,-211.73"/>
<polygon fill="black" stroke="black" points="131.81,-211.73 135.31,-221.73 138.81,-211.73 131.81,-211.73"/>
</g>
<!-- PrismaService  -->
<g id="node8" class="node">
<title>PrismaService </title>
<polygon fill="#fb8072" stroke="black" points="609.36,-258 508.64,-258 508.64,-222 609.36,-222 609.36,-258"/>
<text text-anchor="middle" x="559" y="-235.8" font-family="Times,serif" font-size="14.00">PrismaService </text>
</g>
<!-- PrismaModule&#45;&gt;PrismaService  -->
<g id="edge7" class="edge">
<title>PrismaModule&#45;&gt;PrismaService </title>
<path fill="none" stroke="black" stroke-dasharray="5,2" d="M184.52,-190.15C184.52,-213.76 184.52,-252 184.52,-252 184.52,-252 498.5,-252 498.5,-252"/>
<polygon fill="black" stroke="black" points="498.5,-255.5 508.5,-252 498.5,-248.5 498.5,-255.5"/>
</g>
<!-- PrivilegeModule -->
<g id="node2" class="node">
<title>PrivilegeModule</title>
<polygon fill="#8dd3c7" stroke="black" points="333.09,-190 330.09,-194 309.09,-194 306.09,-190 222.91,-190 222.91,-154 333.09,-154 333.09,-190"/>
<text text-anchor="middle" x="278" y="-167.8" font-family="Times,serif" font-size="14.00">PrivilegeModule</text>
</g>
<!-- PrivilegeModule&#45;&gt;AppModule -->
<g id="edge2" class="edge">
<title>PrivilegeModule&#45;&gt;AppModule</title>
<path fill="none" stroke="black" d="M278,-190.27C278,-208.56 278,-234 278,-234 278,-234 173.81,-234 173.81,-234"/>
<polygon fill="black" stroke="black" points="173.81,-230.5 163.81,-234 173.81,-237.5 173.81,-230.5"/>
</g>
<!-- ValidationModule -->
<g id="node3" class="node">
<title>ValidationModule</title>
<polygon fill="#8dd3c7" stroke="black" points="469.15,-190 466.15,-194 445.15,-194 442.15,-190 350.85,-190 350.85,-154 469.15,-154 469.15,-190"/>
<text text-anchor="middle" x="410" y="-167.8" font-family="Times,serif" font-size="14.00">ValidationModule</text>
</g>
<!-- ValidationModule&#45;&gt;AppModule -->
<g id="edge3" class="edge">
<title>ValidationModule&#45;&gt;AppModule</title>
<path fill="none" stroke="black" d="M410,-190.29C410,-212.21 410,-246 410,-246 410,-246 173.88,-246 173.88,-246"/>
<polygon fill="black" stroke="black" points="173.88,-242.5 163.88,-246 173.88,-249.5 173.88,-242.5"/>
</g>
<!-- ExceptionService  -->
<g id="node10" class="node">
<title>ExceptionService </title>
<polygon fill="#fb8072" stroke="black" points="1393.24,-258 1274.76,-258 1274.76,-222 1393.24,-222 1393.24,-258"/>
<text text-anchor="middle" x="1334" y="-235.8" font-family="Times,serif" font-size="14.00">ExceptionService </text>
</g>
<!-- ValidationModule&#45;&gt;ExceptionService  -->
<g id="edge10" class="edge">
<title>ValidationModule&#45;&gt;ExceptionService </title>
<path fill="none" stroke="black" stroke-dasharray="5,2" d="M469.21,-160C673.14,-160 1334,-160 1334,-160 1334,-160 1334,-211.85 1334,-211.85"/>
<polygon fill="black" stroke="black" points="1330.5,-211.85 1334,-221.85 1337.5,-211.85 1330.5,-211.85"/>
</g>
<!-- ResponseService  -->
<g id="node11" class="node">
<title>ResponseService </title>
<polygon fill="#fb8072" stroke="black" points="1256.63,-258 1141.37,-258 1141.37,-222 1256.63,-222 1256.63,-258"/>
<text text-anchor="middle" x="1199" y="-235.8" font-family="Times,serif" font-size="14.00">ResponseService </text>
</g>
<!-- ValidationModule&#45;&gt;ResponseService  -->
<g id="edge11" class="edge">
<title>ValidationModule&#45;&gt;ResponseService </title>
<path fill="none" stroke="black" stroke-dasharray="5,2" d="M469.3,-166C652.79,-166 1199,-166 1199,-166 1199,-166 1199,-211.71 1199,-211.71"/>
<polygon fill="black" stroke="black" points="1195.5,-211.71 1199,-221.71 1202.5,-211.71 1195.5,-211.71"/>
</g>
<!-- ValidationService  -->
<g id="node12" class="node">
<title>ValidationService </title>
<polygon fill="#fb8072" stroke="black" points="1123.08,-258 1002.92,-258 1002.92,-222 1123.08,-222 1123.08,-258"/>
<text text-anchor="middle" x="1063" y="-235.8" font-family="Times,serif" font-size="14.00">ValidationService </text>
</g>
<!-- ValidationModule&#45;&gt;ValidationService  -->
<g id="edge12" class="edge">
<title>ValidationModule&#45;&gt;ValidationService </title>
<path fill="none" stroke="black" stroke-dasharray="5,2" d="M469.39,-172C630.36,-172 1063,-172 1063,-172 1063,-172 1063,-211.78 1063,-211.78"/>
<polygon fill="black" stroke="black" points="1059.5,-211.78 1063,-221.78 1066.5,-211.78 1059.5,-211.78"/>
</g>
<!-- AppService -->
<g id="node5" class="node">
<title>AppService</title>
<ellipse fill="#fdb462" stroke="black" cx="81" cy="-104" rx="56.74" ry="18"/>
<text text-anchor="middle" x="81" y="-99.8" font-family="Times,serif" font-size="14.00">AppService</text>
</g>
<!-- AppService&#45;&gt;AppModule -->
<g id="edge4" class="edge">
<title>AppService&#45;&gt;AppModule</title>
<path fill="none" stroke="black" d="M93.48,-121.78C93.48,-121.78 93.48,-211.78 93.48,-211.78"/>
<polygon fill="black" stroke="black" points="89.98,-211.78 93.48,-221.78 96.98,-211.78 89.98,-211.78"/>
</g>
<!-- PrismaService -->
<g id="node6" class="node">
<title>PrismaService</title>
<ellipse fill="#fdb462" stroke="black" cx="222" cy="-104" rx="66.63" ry="18"/>
<text text-anchor="middle" x="222" y="-99.8" font-family="Times,serif" font-size="14.00">PrismaService</text>
</g>
<!-- PrismaService&#45;&gt;PrismaModule -->
<g id="edge8" class="edge">
<title>PrismaService&#45;&gt;PrismaModule</title>
<path fill="none" stroke="black" d="M180.2,-118.09C180.2,-118.09 180.2,-143.79 180.2,-143.79"/>
<polygon fill="black" stroke="black" points="176.7,-143.79 180.2,-153.79 183.7,-143.79 176.7,-143.79"/>
</g>
<!-- PrismaService&#45;&gt;AppModule -->
<g id="edge5" class="edge">
<title>PrismaService&#45;&gt;AppModule</title>
<path fill="none" stroke="black" d="M214.08,-122.03C214.08,-156.42 214.08,-228 214.08,-228 214.08,-228 173.73,-228 173.73,-228"/>
<polygon fill="black" stroke="black" points="173.73,-224.5 163.73,-228 173.73,-231.5 173.73,-224.5"/>
</g>
<!-- ValidationService -->
<g id="node7" class="node">
<title>ValidationService</title>
<ellipse fill="#fdb462" stroke="black" cx="388" cy="-104" rx="80.51" ry="18"/>
<text text-anchor="middle" x="388" y="-99.8" font-family="Times,serif" font-size="14.00">ValidationService</text>
</g>
<!-- ValidationService&#45;&gt;ValidationModule -->
<g id="edge15" class="edge">
<title>ValidationService&#45;&gt;ValidationModule</title>
<path fill="none" stroke="black" d="M409.72,-121.51C409.72,-121.51 409.72,-143.84 409.72,-143.84"/>
<polygon fill="black" stroke="black" points="406.22,-143.84 409.72,-153.84 413.22,-143.84 406.22,-143.84"/>
</g>
<!-- ValidationService&#45;&gt;AppModule -->
<g id="edge6" class="edge">
<title>ValidationService&#45;&gt;AppModule</title>
<path fill="none" stroke="black" d="M341.86,-118.81C341.86,-154.06 341.86,-240 341.86,-240 341.86,-240 173.87,-240 173.87,-240"/>
<polygon fill="black" stroke="black" points="173.87,-236.5 163.87,-240 173.87,-243.5 173.87,-236.5"/>
</g>
<!-- PrivilegeService -->
<g id="node9" class="node">
<title>PrivilegeService</title>
<ellipse fill="#fdb462" stroke="black" cx="584" cy="-104" rx="74.71" ry="18"/>
<text text-anchor="middle" x="584" y="-99.8" font-family="Times,serif" font-size="14.00">PrivilegeService</text>
</g>
<!-- PrivilegeService&#45;&gt;PrivilegeModule -->
<g id="edge9" class="edge">
<title>PrivilegeService&#45;&gt;PrivilegeModule</title>
<path fill="none" stroke="black" d="M559.16,-121C559.16,-129.5 559.16,-138 559.16,-138 559.16,-138 320.15,-138 320.15,-138 320.15,-138 320.15,-143.81 320.15,-143.81"/>
<polygon fill="black" stroke="black" points="316.65,-143.81 320.15,-153.81 323.65,-143.81 316.65,-143.81"/>
</g>
<!-- ExceptionService -->
<g id="node13" class="node">
<title>ExceptionService</title>
<ellipse fill="#fdb462" stroke="black" cx="728" cy="-240" rx="79.29" ry="18"/>
<text text-anchor="middle" x="728" y="-235.8" font-family="Times,serif" font-size="14.00">ExceptionService</text>
</g>
<!-- ExceptionService&#45;&gt;ValidationModule -->
<g id="edge13" class="edge">
<title>ExceptionService&#45;&gt;ValidationModule</title>
<path fill="none" stroke="black" d="M653.86,-233.58C653.86,-218.87 653.86,-184 653.86,-184 653.86,-184 479.34,-184 479.34,-184"/>
<polygon fill="black" stroke="black" points="479.34,-180.5 469.34,-184 479.34,-187.5 479.34,-180.5"/>
</g>
<!-- ResponseService -->
<g id="node14" class="node">
<title>ResponseService</title>
<ellipse fill="#fdb462" stroke="black" cx="902" cy="-240" rx="77" ry="18"/>
<text text-anchor="middle" x="902" y="-235.8" font-family="Times,serif" font-size="14.00">ResponseService</text>
</g>
<!-- ResponseService&#45;&gt;ValidationModule -->
<g id="edge14" class="edge">
<title>ResponseService&#45;&gt;ValidationModule</title>
<path fill="none" stroke="black" d="M902,-221.73C902,-203.44 902,-178 902,-178 902,-178 479.35,-178 479.35,-178"/>
<polygon fill="black" stroke="black" points="479.35,-174.5 469.35,-178 479.35,-181.5 479.35,-174.5"/>
</g>
</g>
</svg>
